%TF.GenerationSoftware,KiCad,Pcbnew,8.0.6*%
%TF.CreationDate,2025-01-04T08:58:16+01:00*%
%TF.ProjectId,kbd_flex,6b62645f-666c-4657-982e-6b696361645f,rev?*%
%TF.SameCoordinates,Original*%
%TF.FileFunction,Profile,NP*%
%FSLAX46Y46*%
G04 Gerber Fmt 4.6, Leading zero omitted, Abs format (unit mm)*
G04 Created by KiCad (PCBNEW 8.0.6) date 2025-01-04 08:58:16*
%MOMM*%
%LPD*%
G01*
G04 APERTURE LIST*
%TA.AperFunction,Profile*%
%ADD10C,0.050000*%
%TD*%
G04 APERTURE END LIST*
D10*
X81790001Y-160570050D02*
G75*
G02*
X82790050Y-159570001I1000099J-50D01*
G01*
X160160000Y-88340000D02*
G75*
G02*
X158560000Y-88340000I-800000J0D01*
G01*
X158560000Y-88340000D02*
G75*
G02*
X160160000Y-88340000I800000J0D01*
G01*
X53490000Y-88330000D02*
G75*
G02*
X51890000Y-88330000I-800000J0D01*
G01*
X51890000Y-88330000D02*
G75*
G02*
X53490000Y-88330000I800000J0D01*
G01*
X160160000Y-21900000D02*
G75*
G02*
X158560000Y-21900000I-800000J0D01*
G01*
X158560000Y-21900000D02*
G75*
G02*
X160160000Y-21900000I800000J0D01*
G01*
X31170000Y-89380000D02*
G75*
G02*
X30000000Y-88200000I5000J1175000D01*
G01*
X108490050Y-159570001D02*
G75*
G02*
X109490099Y-160570050I-50J-1000099D01*
G01*
X72980099Y-159699952D02*
G75*
G02*
X73980148Y-160700001I1J-1000048D01*
G01*
X73980099Y-175099952D02*
X73980099Y-160699952D01*
X46460000Y-100530000D02*
X35490000Y-100530000D01*
X51050000Y-113760000D02*
X51050000Y-90650000D01*
X46280050Y-175100001D02*
X46280050Y-160700001D01*
X53490000Y-21890000D02*
G75*
G02*
X51890000Y-21890000I-800000J0D01*
G01*
X51890000Y-21890000D02*
G75*
G02*
X53490000Y-21890000I800000J0D01*
G01*
X157200000Y-183800000D02*
G75*
G02*
X156000000Y-185000000I-1200000J0D01*
G01*
X161000000Y-21170000D02*
X161000000Y-159600000D01*
X109490050Y-174970001D02*
G75*
G02*
X108490001Y-175970050I-1000050J1D01*
G01*
X49590000Y-61140000D02*
X31170000Y-61140000D01*
X34000000Y-163560000D02*
X34000000Y-183830000D01*
X38140000Y-182000000D02*
G75*
G02*
X36140000Y-182000000I-1000000J0D01*
G01*
X36140000Y-182000000D02*
G75*
G02*
X38140000Y-182000000I1000000J0D01*
G01*
X32150000Y-161700000D02*
G75*
G02*
X34000000Y-163560000I-5000J-1855000D01*
G01*
X46460000Y-89410000D02*
X46460000Y-100530000D01*
X132300000Y-89300000D02*
G75*
G02*
X132300000Y-90760000I0J-730000D01*
G01*
X159800000Y-20000000D02*
G75*
G02*
X160999919Y-21170001I15700J-1184200D01*
G01*
X161000000Y-159600000D02*
G75*
G02*
X159280000Y-161320000I-1720000J0D01*
G01*
X30000000Y-116130000D02*
G75*
G02*
X31160000Y-114960000I1165000J5000D01*
G01*
X138670000Y-90760000D02*
G75*
G02*
X138670000Y-89300000I0J730000D01*
G01*
X115080000Y-182150000D02*
G75*
G02*
X112420000Y-182150000I-1330000J0D01*
G01*
X112420000Y-182150000D02*
G75*
G02*
X115080000Y-182150000I1330000J0D01*
G01*
X138670000Y-90760000D02*
X150260000Y-90760000D01*
X53490000Y-91710000D02*
G75*
G02*
X51890000Y-91710000I-800000J0D01*
G01*
X51890000Y-91710000D02*
G75*
G02*
X53490000Y-91710000I800000J0D01*
G01*
X31850000Y-161700000D02*
G75*
G02*
X30000000Y-159830000I10000J1860000D01*
G01*
X157200000Y-163400000D02*
G75*
G02*
X159280000Y-161320000I2080000J0D01*
G01*
X50760000Y-59970000D02*
G75*
G02*
X49590000Y-61140000I-1170000J0D01*
G01*
X44080000Y-180820000D02*
G75*
G02*
X41420000Y-180820000I-1330000J0D01*
G01*
X41420000Y-180820000D02*
G75*
G02*
X44080000Y-180820000I1330000J0D01*
G01*
X35200000Y-185000000D02*
G75*
G02*
X34000000Y-183830000I-15000J1185000D01*
G01*
X82790050Y-159570001D02*
X108490050Y-159570001D01*
X82790001Y-175970050D02*
X108490001Y-175970050D01*
X30000000Y-62310000D02*
G75*
G02*
X31170000Y-61140000I1170000J0D01*
G01*
X109490050Y-174970001D02*
X109490050Y-160570001D01*
X46280050Y-160700001D02*
G75*
G02*
X47280099Y-159699950I1000050J1D01*
G01*
X49870000Y-114960000D02*
X31160000Y-114960000D01*
X51050000Y-89410000D02*
G75*
G02*
X51050000Y-90650000I0J-620000D01*
G01*
X51050000Y-89410000D02*
X46460000Y-89410000D01*
X50760000Y-21160000D02*
G75*
G02*
X51900000Y-20000000I1150000J10000D01*
G01*
X138670000Y-89300000D02*
X150260000Y-89300000D01*
X82790001Y-175970050D02*
G75*
G02*
X81789950Y-174970001I-1J1000050D01*
G01*
X81790001Y-174970050D02*
X81790001Y-160570050D01*
X59700000Y-89300000D02*
X132300000Y-89300000D01*
X35200000Y-185000000D02*
X156000000Y-185000000D01*
X59700000Y-90760000D02*
G75*
G02*
X59700000Y-89300000I0J730000D01*
G01*
X32150000Y-161700000D02*
X31850000Y-161700000D01*
X30000000Y-116130000D02*
X30000000Y-159830000D01*
X149580000Y-182150000D02*
G75*
G02*
X146920000Y-182150000I-1330000J0D01*
G01*
X146920000Y-182150000D02*
G75*
G02*
X149580000Y-182150000I1330000J0D01*
G01*
X47280050Y-176100001D02*
G75*
G02*
X46280099Y-175099952I50J1000001D01*
G01*
X59700000Y-90760000D02*
X132300000Y-90760000D01*
X53490000Y-158150000D02*
G75*
G02*
X51890000Y-158150000I-800000J0D01*
G01*
X51890000Y-158150000D02*
G75*
G02*
X53490000Y-158150000I800000J0D01*
G01*
X51050000Y-113760000D02*
G75*
G02*
X49870000Y-114960000I-1190000J-10000D01*
G01*
X73980099Y-175099952D02*
G75*
G02*
X72980050Y-176100099I-1000099J-48D01*
G01*
X150260000Y-89300000D02*
G75*
G02*
X150260000Y-90760000I0J-730000D01*
G01*
X35490000Y-89380000D02*
X31170000Y-89380000D01*
X155210000Y-181990000D02*
G75*
G02*
X153210000Y-181990000I-1000000J0D01*
G01*
X153210000Y-181990000D02*
G75*
G02*
X155210000Y-181990000I1000000J0D01*
G01*
X47280050Y-176100001D02*
X72980050Y-176100001D01*
X157200000Y-183800000D02*
X157200000Y-163400000D01*
X160160000Y-158160000D02*
G75*
G02*
X158560000Y-158160000I-800000J0D01*
G01*
X158560000Y-158160000D02*
G75*
G02*
X160160000Y-158160000I800000J0D01*
G01*
X50760000Y-21160000D02*
X50760000Y-59970000D01*
X159800000Y-20000000D02*
X51900000Y-20000000D01*
X47280099Y-159699952D02*
X72980099Y-159699952D01*
X160160000Y-91720000D02*
G75*
G02*
X158560000Y-91720000I-800000J0D01*
G01*
X158560000Y-91720000D02*
G75*
G02*
X160160000Y-91720000I800000J0D01*
G01*
X35490000Y-100530000D02*
X35490000Y-89380000D01*
X30000000Y-62310000D02*
X30000000Y-88200000D01*
M02*
