%TF.GenerationSoftware,KiCad,Pcbnew,8.0.6*%
%TF.CreationDate,2025-01-04T08:58:16+01:00*%
%TF.ProjectId,kbd_flex,6b62645f-666c-4657-982e-6b696361645f,rev?*%
%TF.SameCoordinates,Original*%
%TF.FileFunction,Copper,L1,Top*%
%TF.FilePolarity,Positive*%
%FSLAX46Y46*%
G04 Gerber Fmt 4.6, Leading zero omitted, Abs format (unit mm)*
G04 Created by KiCad (PCBNEW 8.0.6) date 2025-01-04 08:58:16*
%MOMM*%
%LPD*%
G01*
G04 APERTURE LIST*
G04 Aperture macros list*
%AMFreePoly0*
4,1,53,2.039018,2.734157,2.111114,2.704294,2.166294,2.649114,2.196157,2.577018,2.200000,2.538000,2.200000,2.000000,2.196157,1.960982,2.166294,1.888886,2.111114,1.833706,2.039018,1.803843,2.000000,1.800000,-1.200000,1.800000,-1.200000,0.762000,1.819000,0.762000,1.927713,0.746161,2.040390,0.691076,2.129076,0.602390,2.184161,0.489713,2.200000,0.381000,2.200000,-0.381000,
2.184161,-0.489713,2.129076,-0.602390,2.040390,-0.691076,1.927713,-0.746161,1.819000,-0.762000,-1.200000,-0.762000,-1.200000,-1.762000,2.000000,-1.762000,2.039018,-1.765843,2.111114,-1.795706,2.166294,-1.850886,2.196157,-1.922982,2.200000,-1.962000,2.200000,-2.500000,2.196157,-2.539018,2.166294,-2.611114,2.111114,-2.666294,2.039018,-2.696157,2.000000,-2.700000,-2.000000,-2.700000,
-2.039018,-2.696157,-2.111114,-2.666294,-2.166294,-2.611114,-2.196157,-2.539018,-2.200000,-2.500000,-2.200000,2.538000,-2.196157,2.577018,-2.166294,2.649114,-2.111114,2.704294,-2.039018,2.734157,-2.000000,2.738000,2.000000,2.738000,2.039018,2.734157,2.039018,2.734157,$1*%
%AMFreePoly1*
4,1,65,2.548773,2.195196,2.638893,2.157867,2.707867,2.088893,2.745196,1.998773,2.750000,1.950000,2.750000,-1.950000,2.745196,-1.998773,2.707867,-2.088893,2.638893,-2.157867,2.548773,-2.195196,2.500000,-2.200000,-2.500000,-2.200000,-2.548773,-2.195196,-2.638893,-2.157867,-2.707867,-2.088893,-2.745196,-1.998773,-2.750000,-1.950000,-2.750000,-1.250000,-2.745196,-1.201227,-2.707867,-1.111107,
-2.638893,-1.042133,-2.548773,-1.004804,-2.500000,-1.000000,1.272318,-1.000000,1.351851,-0.971052,1.416687,-0.916649,1.459005,-0.843351,1.473702,-0.760000,1.459005,-0.676649,1.416687,-0.603351,1.351851,-0.548948,1.286055,-0.525000,-2.487500,-0.525000,-2.587954,-0.505018,-2.673116,-0.448116,-2.730018,-0.362954,-2.750000,-0.262500,-2.750000,0.262500,-2.730018,0.362954,-2.673116,0.448116,
-2.587954,0.505018,-2.487500,0.525000,1.286055,0.525000,1.351851,0.548948,1.416687,0.603351,1.459005,0.676649,1.473702,0.760000,1.459005,0.843351,1.416687,0.916649,1.351851,0.971052,1.272318,1.000000,-2.500000,1.000000,-2.548773,1.004804,-2.638893,1.042133,-2.707867,1.111107,-2.745196,1.201227,-2.750000,1.250000,-2.750000,1.950000,-2.745196,1.998773,-2.707867,2.088893,
-2.638893,2.157867,-2.548773,2.195196,-2.500000,2.200000,2.500000,2.200000,2.548773,2.195196,2.548773,2.195196,$1*%
G04 Aperture macros list end*
%TA.AperFunction,Conductor*%
%ADD10C,0.010000*%
%TD*%
%ADD11C,0.300000*%
%TA.AperFunction,NonConductor*%
%ADD12C,0.300000*%
%TD*%
%TA.AperFunction,SMDPad,CuDef*%
%ADD13FreePoly0,0.000000*%
%TD*%
%TA.AperFunction,SMDPad,CuDef*%
%ADD14FreePoly1,90.000000*%
%TD*%
%TA.AperFunction,SMDPad,CuDef*%
%ADD15R,0.900000X4.500000*%
%TD*%
G04 APERTURE END LIST*
D10*
%TO.N,Net-(J1-Pin_15)*%
X142510000Y-179980000D02*
X142510000Y-176210000D01*
%TO.N,Net-(J1-Pin_10)*%
X134010000Y-179800000D02*
X134010000Y-170050000D01*
D11*
D12*
G36*
X41431299Y-132708409D02*
G01*
X41637998Y-132759825D01*
X41824225Y-132845520D01*
X41989982Y-132965493D01*
X42135268Y-133119744D01*
X42179148Y-133178778D01*
X42293271Y-133364586D01*
X42374787Y-133569323D01*
X42419366Y-133763995D01*
X42438981Y-133973159D01*
X42440000Y-134035582D01*
X42428718Y-134246356D01*
X42394872Y-134441483D01*
X42324473Y-134654982D01*
X42221582Y-134845949D01*
X42086198Y-135014385D01*
X41977892Y-135114159D01*
X41805334Y-135230418D01*
X41617878Y-135313461D01*
X41415523Y-135363286D01*
X41198269Y-135379895D01*
X40998095Y-135363986D01*
X40779925Y-135302894D01*
X40585797Y-135195985D01*
X40415713Y-135043257D01*
X40292342Y-134880983D01*
X40205666Y-134728255D01*
X40077194Y-134906186D01*
X39930328Y-135059939D01*
X39764243Y-135173130D01*
X39680055Y-135206971D01*
X39480192Y-135250168D01*
X39376217Y-135254842D01*
X39175827Y-135238425D01*
X38965220Y-135177771D01*
X38779578Y-135072424D01*
X38618899Y-134922384D01*
X38519413Y-134787850D01*
X38419765Y-134601949D01*
X38352729Y-134395955D01*
X38320519Y-134195981D01*
X38313316Y-134036559D01*
X38749002Y-134036559D01*
X38769274Y-134253569D01*
X38840543Y-134453621D01*
X38963126Y-134606996D01*
X39073356Y-134683314D01*
X39264195Y-134753098D01*
X39375240Y-134762449D01*
X39578006Y-134733701D01*
X39759432Y-134634324D01*
X39894682Y-134463965D01*
X39926252Y-134399016D01*
X39987080Y-134205953D01*
X40001479Y-134036559D01*
X40001388Y-134035582D01*
X40437208Y-134035582D01*
X40454272Y-134246430D01*
X40515561Y-134453166D01*
X40621425Y-134623388D01*
X40771864Y-134757096D01*
X40793803Y-134771242D01*
X40980233Y-134854690D01*
X41185984Y-134887047D01*
X41214877Y-134887501D01*
X41429323Y-134863688D01*
X41613482Y-134792247D01*
X41784459Y-134654946D01*
X41890942Y-134506482D01*
X41968412Y-134322716D01*
X42001503Y-134127630D01*
X42004270Y-134046329D01*
X41986646Y-133830913D01*
X41923341Y-133620330D01*
X41813996Y-133447727D01*
X41658612Y-133313103D01*
X41635952Y-133298946D01*
X41452441Y-133216199D01*
X41259084Y-133184676D01*
X41214877Y-133183663D01*
X41000493Y-133207904D01*
X40816517Y-133280628D01*
X40662950Y-133401833D01*
X40539790Y-133571521D01*
X40469666Y-133757958D01*
X40439713Y-133954185D01*
X40437208Y-134035582D01*
X40001388Y-134035582D01*
X39981268Y-133819122D01*
X39910213Y-133618735D01*
X39787999Y-133465180D01*
X39678101Y-133388827D01*
X39488926Y-133318182D01*
X39381102Y-133308715D01*
X39165500Y-133339318D01*
X38992401Y-133431127D01*
X38861806Y-133584141D01*
X38807620Y-133695596D01*
X38758676Y-133886967D01*
X38749002Y-134036559D01*
X38313316Y-134036559D01*
X38313272Y-134035582D01*
X38323743Y-133836014D01*
X38363952Y-133617752D01*
X38434317Y-133422640D01*
X38534838Y-133250678D01*
X38665515Y-133101866D01*
X38742163Y-133036140D01*
X38920365Y-132920221D01*
X39116694Y-132847234D01*
X39331151Y-132817181D01*
X39376217Y-132816322D01*
X39580760Y-132836647D01*
X39779933Y-132906905D01*
X39949529Y-133027347D01*
X39994640Y-133073265D01*
X40116166Y-133230412D01*
X40205666Y-133369288D01*
X40315823Y-133173960D01*
X40442963Y-133011739D01*
X40617948Y-132860774D01*
X40817387Y-132757482D01*
X41041282Y-132701864D01*
X41204131Y-132691270D01*
X41431299Y-132708409D01*
G37*
D11*
D12*
G36*
X40499734Y-140190921D02*
G01*
X40064005Y-140190921D01*
X40059844Y-139992849D01*
X40042267Y-139779127D01*
X40002104Y-139580460D01*
X39977055Y-139512903D01*
X39861325Y-139339280D01*
X39697320Y-139229962D01*
X39485039Y-139184949D01*
X39436789Y-139183663D01*
X39239920Y-139203111D01*
X39054082Y-139272964D01*
X38894937Y-139412274D01*
X38797850Y-139590083D01*
X38754774Y-139789858D01*
X38749002Y-139907599D01*
X38768053Y-140120090D01*
X38835029Y-140321774D01*
X38950227Y-140483890D01*
X39053817Y-140569986D01*
X39103642Y-140597341D01*
X39296799Y-140665361D01*
X39507894Y-140689793D01*
X39610690Y-140692107D01*
X39610690Y-141184501D01*
X39378828Y-141175012D01*
X39169771Y-141146547D01*
X38926505Y-141079075D01*
X38723784Y-140977867D01*
X38561606Y-140842923D01*
X38439973Y-140674243D01*
X38358885Y-140471827D01*
X38318340Y-140235674D01*
X38313272Y-140104947D01*
X38313272Y-139918346D01*
X38313272Y-139836280D01*
X38326224Y-139629542D01*
X38375958Y-139405510D01*
X38462992Y-139207719D01*
X38587327Y-139036169D01*
X38748962Y-138890860D01*
X38843768Y-138828046D01*
X39035514Y-138744698D01*
X39236626Y-138702089D01*
X39419204Y-138691270D01*
X39637065Y-138710538D01*
X39826830Y-138768343D01*
X40012713Y-138884490D01*
X40160355Y-139053089D01*
X40256468Y-139239351D01*
X40333531Y-139057737D01*
X40445055Y-138882232D01*
X40601020Y-138729626D01*
X40787392Y-138628189D01*
X40865122Y-138603342D01*
X41064943Y-138571438D01*
X41203154Y-138566217D01*
X41408423Y-138579264D01*
X41632454Y-138629364D01*
X41832169Y-138717040D01*
X42007566Y-138842291D01*
X42158645Y-139005117D01*
X42225066Y-139100621D01*
X42319099Y-139280994D01*
X42386266Y-139478220D01*
X42426566Y-139692299D01*
X42439790Y-139893442D01*
X42440000Y-139923230D01*
X42431054Y-140125006D01*
X42394713Y-140353955D01*
X42330418Y-140557048D01*
X42238169Y-140734287D01*
X42090570Y-140912843D01*
X41902717Y-141054168D01*
X41867494Y-141074103D01*
X41683969Y-141169415D01*
X41491061Y-141225013D01*
X41271878Y-141252018D01*
X41166029Y-141254842D01*
X41166029Y-140762449D01*
X41379054Y-140746635D01*
X41593377Y-140685910D01*
X41762638Y-140579642D01*
X41886835Y-140427830D01*
X41965970Y-140230474D01*
X41988639Y-140114717D01*
X42004209Y-139917453D01*
X42004270Y-139905645D01*
X41988917Y-139696027D01*
X41932197Y-139488372D01*
X41816197Y-139299710D01*
X41645608Y-139162949D01*
X41567564Y-139125045D01*
X41379516Y-139071327D01*
X41214877Y-139058611D01*
X41008855Y-139079457D01*
X40807721Y-139159508D01*
X40656870Y-139299596D01*
X40556303Y-139499723D01*
X40510908Y-139712357D01*
X40499734Y-139912484D01*
X40499734Y-140130348D01*
X40499734Y-140190921D01*
G37*
D11*
D12*
G36*
X40514435Y-126697040D02*
G01*
X40753442Y-126714351D01*
X40977397Y-126743202D01*
X41186301Y-126783593D01*
X41380153Y-126835525D01*
X41601303Y-126916669D01*
X41798935Y-127015845D01*
X41871402Y-127060565D01*
X42029557Y-127182999D01*
X42182295Y-127348239D01*
X42300812Y-127537602D01*
X42375161Y-127719112D01*
X42424368Y-127918346D01*
X42439618Y-128113838D01*
X42440000Y-128149888D01*
X42427239Y-128346542D01*
X42378238Y-128560865D01*
X42292485Y-128751557D01*
X42169982Y-128918619D01*
X42010728Y-129062051D01*
X41917320Y-129124905D01*
X41726786Y-129217555D01*
X41529727Y-129277319D01*
X41405387Y-129300760D01*
X41405387Y-128810321D01*
X41600880Y-128751530D01*
X41777590Y-128647131D01*
X41916831Y-128482241D01*
X41987662Y-128293503D01*
X42004270Y-128134256D01*
X41975866Y-127910648D01*
X41890652Y-127718295D01*
X41748628Y-127557198D01*
X41586879Y-127446826D01*
X41385679Y-127358159D01*
X41196315Y-127302854D01*
X40998192Y-127262668D01*
X40803730Y-127239226D01*
X40593966Y-127227841D01*
X40495826Y-127226650D01*
X40645898Y-127380489D01*
X40764921Y-127543051D01*
X40864538Y-127743734D01*
X40921893Y-127956291D01*
X40937418Y-128147934D01*
X40920965Y-128375217D01*
X40871609Y-128582991D01*
X40789349Y-128771257D01*
X40674185Y-128940013D01*
X40526116Y-129089261D01*
X40469448Y-129134675D01*
X40294448Y-129241959D01*
X40101618Y-129318590D01*
X39890959Y-129364569D01*
X39692006Y-129379655D01*
X39662470Y-129379895D01*
X39458966Y-129368470D01*
X39233652Y-129324598D01*
X39028946Y-129247821D01*
X38844848Y-129138141D01*
X38681358Y-128995557D01*
X38607341Y-128911926D01*
X38492757Y-128750713D01*
X38406317Y-128574821D01*
X38348021Y-128384249D01*
X38317867Y-128178999D01*
X38314178Y-128079546D01*
X38749002Y-128079546D01*
X38771533Y-128283733D01*
X38850745Y-128483081D01*
X38986990Y-128650280D01*
X39109504Y-128743886D01*
X39287328Y-128831402D01*
X39485211Y-128878525D01*
X39628276Y-128887501D01*
X39832146Y-128873179D01*
X40037090Y-128820265D01*
X40227920Y-128712050D01*
X40372466Y-128552910D01*
X40414738Y-128480104D01*
X40482583Y-128289236D01*
X40501688Y-128095177D01*
X40483923Y-127899617D01*
X40420115Y-127703826D01*
X40309900Y-127537588D01*
X40153280Y-127400904D01*
X40130439Y-127385896D01*
X39954516Y-127300502D01*
X39755374Y-127258642D01*
X39655631Y-127254005D01*
X39451576Y-127270835D01*
X39245160Y-127331285D01*
X39067321Y-127435699D01*
X38918058Y-127584076D01*
X38901409Y-127605715D01*
X38802731Y-127784776D01*
X38754360Y-127982219D01*
X38749002Y-128079546D01*
X38314178Y-128079546D01*
X38313272Y-128055122D01*
X38325318Y-127850344D01*
X38371571Y-127626587D01*
X38452515Y-127426804D01*
X38568148Y-127250995D01*
X38718472Y-127099160D01*
X38806643Y-127032233D01*
X39007731Y-126916358D01*
X39196504Y-126838110D01*
X39404549Y-126776510D01*
X39631867Y-126731559D01*
X39827597Y-126707585D01*
X40035661Y-126694266D01*
X40199804Y-126691270D01*
X40260376Y-126691270D01*
X40514435Y-126697040D01*
G37*
%TD*%
D13*
%TO.P,J23,1,Pin_1*%
%TO.N,Net-(J1-Pin_7)*%
X72040000Y-131910000D03*
%TD*%
%TO.P,J9,1,Pin_1*%
%TO.N,Net-(J1-Pin_3)*%
X102950000Y-103940000D03*
%TD*%
%TO.P,J15,1,Pin_1*%
%TO.N,Net-(J1-Pin_5)*%
X81340000Y-131910000D03*
%TD*%
D14*
%TO.P,J50,1,Pin_1*%
%TO.N,Net-(J1-Pin_10)*%
X140120000Y-61880000D03*
%TD*%
D13*
%TO.P,J19,1,Pin_1*%
%TO.N,Net-(J1-Pin_6)*%
X121570000Y-131910000D03*
%TD*%
%TO.P,J28,1,Pin_1*%
%TO.N,Net-(J1-Pin_8)*%
X62750000Y-117920000D03*
%TD*%
D14*
%TO.P,J65,1,Pin_1*%
%TO.N,Net-(J1-Pin_14)*%
X93570000Y-48030000D03*
%TD*%
%TO.P,J47,1,Pin_1*%
%TO.N,Net-(J1-Pin_10)*%
X112200000Y-61880000D03*
%TD*%
D13*
%TO.P,J14,1,Pin_1*%
%TO.N,Net-(J1-Pin_5)*%
X81340000Y-145900000D03*
%TD*%
%TO.P,J27,1,Pin_1*%
%TO.N,Net-(J1-Pin_8)*%
X62750000Y-131910000D03*
%TD*%
%TO.P,J8,1,Pin_1*%
%TO.N,Net-(J1-Pin_3)*%
X102950000Y-117920000D03*
%TD*%
D14*
%TO.P,J73,1,Pin_1*%
%TO.N,Net-(J1-Pin_15)*%
X71960000Y-34090000D03*
%TD*%
%TO.P,J51,1,Pin_1*%
%TO.N,Net-(J1-Pin_10)*%
X149490000Y-61880000D03*
%TD*%
%TO.P,J70,1,Pin_1*%
%TO.N,Net-(J1-Pin_14)*%
X140110000Y-48030000D03*
%TD*%
%TO.P,J72,1,Pin_1*%
%TO.N,Net-(J1-Pin_15)*%
X62670000Y-34080000D03*
%TD*%
%TO.P,J45,1,Pin_1*%
%TO.N,Net-(J1-Pin_10)*%
X93580000Y-61880000D03*
%TD*%
D13*
%TO.P,J22,1,Pin_1*%
%TO.N,Net-(J1-Pin_7)*%
X72040000Y-145900000D03*
%TD*%
D14*
%TO.P,J63,1,Pin_1*%
%TO.N,Net-(J1-Pin_14)*%
X71960000Y-48040000D03*
%TD*%
%TO.P,J42,1,Pin_1*%
%TO.N,Net-(J1-Pin_10)*%
X62680000Y-61880000D03*
%TD*%
%TO.P,J67,1,Pin_1*%
%TO.N,Net-(J1-Pin_14)*%
X112190000Y-48030000D03*
%TD*%
D13*
%TO.P,J35,1,Pin_1*%
%TO.N,Net-(J1-Pin_12)*%
X140190000Y-131910000D03*
%TD*%
D14*
%TO.P,J68,1,Pin_1*%
%TO.N,Net-(J1-Pin_14)*%
X121490000Y-48030000D03*
%TD*%
D13*
%TO.P,J2,1,Pin_1*%
%TO.N,Net-(J1-Pin_2)*%
X93650000Y-145900000D03*
%TD*%
%TO.P,J16,1,Pin_1*%
%TO.N,Net-(J1-Pin_5)*%
X81340000Y-117920000D03*
%TD*%
D14*
%TO.P,J59,1,Pin_1*%
%TO.N,Net-(J1-Pin_11)*%
X130910000Y-76080000D03*
%TD*%
D13*
%TO.P,J37,1,Pin_1*%
%TO.N,Net-(J1-Pin_12)*%
X140190000Y-103940000D03*
%TD*%
D14*
%TO.P,J79,1,Pin_1*%
%TO.N,Net-(J1-Pin_15)*%
X130840000Y-34080000D03*
%TD*%
D13*
%TO.P,J21,1,Pin_1*%
%TO.N,Net-(J1-Pin_6)*%
X121570000Y-103940000D03*
%TD*%
D14*
%TO.P,J75,1,Pin_1*%
%TO.N,Net-(J1-Pin_15)*%
X93570000Y-34080000D03*
%TD*%
D13*
%TO.P,J17,1,Pin_1*%
%TO.N,Net-(J1-Pin_5)*%
X81340000Y-103940000D03*
%TD*%
D14*
%TO.P,J57,1,Pin_1*%
%TO.N,Net-(J1-Pin_11)*%
X112260000Y-76080000D03*
%TD*%
D13*
%TO.P,J11,1,Pin_1*%
%TO.N,Net-(J1-Pin_4)*%
X112270000Y-131910000D03*
%TD*%
D14*
%TO.P,J69,1,Pin_1*%
%TO.N,Net-(J1-Pin_14)*%
X130840000Y-48030000D03*
%TD*%
D15*
%TO.P,J1,1,Pin_1*%
%TO.N,Net-(J1-Pin_1)*%
X118260000Y-182050000D03*
%TO.P,J1,2,Pin_2*%
%TO.N,Net-(J1-Pin_2)*%
X119960000Y-182050000D03*
%TO.P,J1,3,Pin_3*%
%TO.N,Net-(J1-Pin_3)*%
X121660000Y-182050000D03*
%TO.P,J1,4,Pin_4*%
%TO.N,Net-(J1-Pin_4)*%
X123360000Y-182050000D03*
%TO.P,J1,5,Pin_5*%
%TO.N,Net-(J1-Pin_5)*%
X125060000Y-182050000D03*
%TO.P,J1,6,Pin_6*%
%TO.N,Net-(J1-Pin_6)*%
X126760000Y-182050000D03*
%TO.P,J1,7,Pin_7*%
%TO.N,Net-(J1-Pin_7)*%
X128460000Y-182050000D03*
%TO.P,J1,8,Pin_8*%
%TO.N,Net-(J1-Pin_8)*%
X130160000Y-182050000D03*
%TO.P,J1,9,Pin_9*%
%TO.N,Net-(J1-Pin_9)*%
X131860000Y-182050000D03*
%TO.P,J1,10,Pin_10*%
%TO.N,Net-(J1-Pin_10)*%
X133560000Y-182050000D03*
%TO.P,J1,11,Pin_11*%
%TO.N,Net-(J1-Pin_11)*%
X135260000Y-182050000D03*
%TO.P,J1,12,Pin_12*%
%TO.N,Net-(J1-Pin_12)*%
X136960000Y-182050000D03*
%TO.P,J1,13,Pin_13*%
%TO.N,Net-(J1-Pin_13)*%
X138660000Y-182050000D03*
%TO.P,J1,14,Pin_14*%
%TO.N,Net-(J1-Pin_14)*%
X140360000Y-182050000D03*
%TO.P,J1,15,Pin_15*%
%TO.N,Net-(J1-Pin_15)*%
X142060000Y-182050000D03*
%TO.P,J1,16,Pin_16*%
%TO.N,Net-(J1-Pin_1)*%
X143760000Y-182050000D03*
%TD*%
D14*
%TO.P,J76,1,Pin_1*%
%TO.N,Net-(J1-Pin_15)*%
X102870000Y-34080000D03*
%TD*%
%TO.P,J61,1,Pin_1*%
%TO.N,Net-(J1-Pin_11)*%
X149550000Y-76080000D03*
%TD*%
D13*
%TO.P,J20,1,Pin_1*%
%TO.N,Net-(J1-Pin_6)*%
X121570000Y-117920000D03*
%TD*%
D14*
%TO.P,J49,1,Pin_1*%
%TO.N,Net-(J1-Pin_10)*%
X130850000Y-61880000D03*
%TD*%
D13*
%TO.P,J26,1,Pin_1*%
%TO.N,Net-(J1-Pin_8)*%
X62750000Y-145900000D03*
%TD*%
D14*
%TO.P,J77,1,Pin_1*%
%TO.N,Net-(J1-Pin_15)*%
X112190000Y-34080000D03*
%TD*%
%TO.P,J62,1,Pin_1*%
%TO.N,Net-(J1-Pin_14)*%
X62670000Y-48030000D03*
%TD*%
D13*
%TO.P,J12,1,Pin_1*%
%TO.N,Net-(J1-Pin_4)*%
X112270000Y-117920000D03*
%TD*%
D14*
%TO.P,J64,1,Pin_1*%
%TO.N,Net-(J1-Pin_14)*%
X81260000Y-48030000D03*
%TD*%
D13*
%TO.P,J5,1,Pin_1*%
%TO.N,Net-(J1-Pin_2)*%
X93650000Y-103940000D03*
%TD*%
D14*
%TO.P,J81,1,Pin_1*%
%TO.N,Net-(J1-Pin_15)*%
X149480000Y-34080000D03*
%TD*%
%TO.P,J74,1,Pin_1*%
%TO.N,Net-(J1-Pin_15)*%
X81260000Y-34080000D03*
%TD*%
%TO.P,J46,1,Pin_1*%
%TO.N,Net-(J1-Pin_10)*%
X102880000Y-61880000D03*
%TD*%
D13*
%TO.P,J32,1,Pin_1*%
%TO.N,Net-(J1-Pin_9)*%
X130920000Y-117920000D03*
%TD*%
D14*
%TO.P,J55,1,Pin_1*%
%TO.N,Net-(J1-Pin_11)*%
X93640000Y-76080000D03*
%TD*%
%TO.P,J56,1,Pin_1*%
%TO.N,Net-(J1-Pin_11)*%
X102940000Y-76080000D03*
%TD*%
%TO.P,J58,1,Pin_1*%
%TO.N,Net-(J1-Pin_11)*%
X121560000Y-76080000D03*
%TD*%
%TO.P,J66,1,Pin_1*%
%TO.N,Net-(J1-Pin_14)*%
X102870000Y-48030000D03*
%TD*%
D13*
%TO.P,J6,1,Pin_1*%
%TO.N,Net-(J1-Pin_3)*%
X102950000Y-145900000D03*
%TD*%
%TO.P,J10,1,Pin_1*%
%TO.N,Net-(J1-Pin_4)*%
X112270000Y-145900000D03*
%TD*%
%TO.P,J7,1,Pin_1*%
%TO.N,Net-(J1-Pin_3)*%
X102950000Y-131910000D03*
%TD*%
D14*
%TO.P,J52,1,Pin_1*%
%TO.N,Net-(J1-Pin_11)*%
X62740000Y-76080000D03*
%TD*%
D13*
%TO.P,J33,1,Pin_1*%
%TO.N,Net-(J1-Pin_9)*%
X130920000Y-103940000D03*
%TD*%
D14*
%TO.P,J78,1,Pin_1*%
%TO.N,Net-(J1-Pin_15)*%
X121490000Y-34080000D03*
%TD*%
D13*
%TO.P,J38,1,Pin_1*%
%TO.N,Net-(J1-Pin_13)*%
X149560000Y-103940000D03*
%TD*%
%TO.P,J13,1,Pin_1*%
%TO.N,Net-(J1-Pin_4)*%
X112270000Y-103940000D03*
%TD*%
%TO.P,J29,1,Pin_1*%
%TO.N,Net-(J1-Pin_8)*%
X62750000Y-103940000D03*
%TD*%
%TO.P,J36,1,Pin_1*%
%TO.N,Net-(J1-Pin_12)*%
X140190000Y-117920000D03*
%TD*%
%TO.P,J18,1,Pin_1*%
%TO.N,Net-(J1-Pin_6)*%
X121570000Y-145890000D03*
%TD*%
%TO.P,J25,1,Pin_1*%
%TO.N,Net-(J1-Pin_7)*%
X72040000Y-103940000D03*
%TD*%
D14*
%TO.P,J60,1,Pin_1*%
%TO.N,Net-(J1-Pin_11)*%
X140180000Y-76080000D03*
%TD*%
%TO.P,J44,1,Pin_1*%
%TO.N,Net-(J1-Pin_10)*%
X81270000Y-61880000D03*
%TD*%
D13*
%TO.P,J4,1,Pin_1*%
%TO.N,Net-(J1-Pin_2)*%
X93650000Y-117920000D03*
%TD*%
%TO.P,J30,1,Pin_1*%
%TO.N,Net-(J1-Pin_9)*%
X130920000Y-145900000D03*
%TD*%
%TO.P,J34,1,Pin_1*%
%TO.N,Net-(J1-Pin_12)*%
X140190000Y-145900000D03*
%TD*%
%TO.P,J41,1,Pin_1*%
%TO.N,Net-(J1-Pin_13)*%
X149560000Y-117920000D03*
%TD*%
D14*
%TO.P,J71,1,Pin_1*%
%TO.N,Net-(J1-Pin_14)*%
X149480000Y-48030000D03*
%TD*%
%TO.P,J80,1,Pin_1*%
%TO.N,Net-(J1-Pin_15)*%
X140110000Y-34080000D03*
%TD*%
%TO.P,J48,1,Pin_1*%
%TO.N,Net-(J1-Pin_10)*%
X121500000Y-61880000D03*
%TD*%
D13*
%TO.P,J39,1,Pin_1*%
%TO.N,Net-(J1-Pin_13)*%
X149560000Y-145890000D03*
%TD*%
D14*
%TO.P,J53,1,Pin_1*%
%TO.N,Net-(J1-Pin_11)*%
X72030000Y-76090000D03*
%TD*%
D13*
%TO.P,J3,1,Pin_1*%
%TO.N,Net-(J1-Pin_2)*%
X93650000Y-131910000D03*
%TD*%
D14*
%TO.P,J54,1,Pin_1*%
%TO.N,Net-(J1-Pin_11)*%
X81330000Y-76080000D03*
%TD*%
%TO.P,J43,1,Pin_1*%
%TO.N,Net-(J1-Pin_10)*%
X71970000Y-61890000D03*
%TD*%
D13*
%TO.P,J31,1,Pin_1*%
%TO.N,Net-(J1-Pin_9)*%
X130920000Y-131910000D03*
%TD*%
%TO.P,J40,1,Pin_1*%
%TO.N,Net-(J1-Pin_13)*%
X149560000Y-131910000D03*
%TD*%
%TO.P,J24,1,Pin_1*%
%TO.N,Net-(J1-Pin_7)*%
X72040000Y-117920000D03*
%TD*%
%TA.AperFunction,Conductor*%
%TO.N,Net-(J1-Pin_14)*%
G36*
X119365677Y-44999685D02*
G01*
X119386319Y-45016319D01*
X119770000Y-45400000D01*
X123140000Y-45400000D01*
X123513681Y-45026319D01*
X123575004Y-44992834D01*
X123601362Y-44990000D01*
X128508638Y-44990000D01*
X128575677Y-45009685D01*
X128596319Y-45026319D01*
X128970000Y-45400000D01*
X132420000Y-45400000D01*
X132773681Y-45046319D01*
X132835004Y-45012834D01*
X132861362Y-45010000D01*
X137868638Y-45010000D01*
X137935677Y-45029685D01*
X137956319Y-45046319D01*
X138300000Y-45390000D01*
X141700000Y-45390000D01*
X141773681Y-45316319D01*
X141835004Y-45282834D01*
X141861362Y-45280000D01*
X153896000Y-45280000D01*
X153963039Y-45299685D01*
X154008794Y-45352489D01*
X154020000Y-45404000D01*
X154020000Y-50530000D01*
X156913681Y-53423681D01*
X156947166Y-53485004D01*
X156950000Y-53511362D01*
X156950000Y-56478638D01*
X156930315Y-56545677D01*
X156913681Y-56566319D01*
X154070000Y-59409999D01*
X154070000Y-64550000D01*
X156943681Y-67423681D01*
X156977166Y-67485004D01*
X156980000Y-67511362D01*
X156980000Y-70528638D01*
X156960315Y-70595677D01*
X156943681Y-70616319D01*
X154110000Y-73449999D01*
X154110000Y-78540000D01*
X156963681Y-81393681D01*
X156997166Y-81455004D01*
X157000000Y-81481362D01*
X157000000Y-84278638D01*
X156980315Y-84345677D01*
X156963681Y-84366319D01*
X154390000Y-86939999D01*
X154390000Y-93240000D01*
X156983681Y-95833681D01*
X157017166Y-95895004D01*
X157020000Y-95921362D01*
X157020000Y-98528638D01*
X157000315Y-98595677D01*
X156983681Y-98616319D01*
X154160000Y-101439999D01*
X154160000Y-106530000D01*
X157013681Y-109383681D01*
X157047166Y-109445004D01*
X157050000Y-109471362D01*
X157050000Y-112498638D01*
X157030315Y-112565677D01*
X157013681Y-112586319D01*
X154180000Y-115419999D01*
X154180000Y-120500000D01*
X157063681Y-123383681D01*
X157097166Y-123445004D01*
X157100000Y-123471362D01*
X157100000Y-126518638D01*
X157080315Y-126585677D01*
X157063681Y-126606319D01*
X154230000Y-129439999D01*
X154230000Y-134500000D01*
X157103681Y-137373681D01*
X157137166Y-137435004D01*
X157140000Y-137461362D01*
X157140000Y-140418638D01*
X157120315Y-140485677D01*
X157103681Y-140506319D01*
X154290000Y-143319999D01*
X154290000Y-153938638D01*
X154270315Y-154005677D01*
X154253681Y-154026319D01*
X146130000Y-162149999D01*
X146130000Y-171661474D01*
X146110315Y-171728513D01*
X146076062Y-171763784D01*
X140810000Y-175370000D01*
X140810000Y-180016000D01*
X140790315Y-180083039D01*
X140737511Y-180128794D01*
X140686000Y-180140000D01*
X140034000Y-180140000D01*
X139966961Y-180120315D01*
X139921206Y-180067511D01*
X139910000Y-180016000D01*
X139910000Y-174943999D01*
X139929685Y-174876960D01*
X139962167Y-174842925D01*
X144680000Y-171490000D01*
X144680000Y-161471362D01*
X144699685Y-161404323D01*
X144716319Y-161383681D01*
X153533681Y-152566319D01*
X153555709Y-152554290D01*
X153580000Y-152530000D01*
X153580000Y-143021362D01*
X153599685Y-142954323D01*
X153616319Y-142933681D01*
X156383681Y-140166319D01*
X156405709Y-140154290D01*
X156430000Y-140130000D01*
X156430000Y-137630000D01*
X153606319Y-134806319D01*
X153572834Y-134744996D01*
X153570000Y-134718638D01*
X153570000Y-128961362D01*
X153589685Y-128894323D01*
X153606319Y-128873681D01*
X156360000Y-126120000D01*
X156360000Y-123690000D01*
X153556319Y-120886319D01*
X153522834Y-120824996D01*
X153520000Y-120798638D01*
X153520000Y-114991362D01*
X153539685Y-114924323D01*
X153556319Y-114903681D01*
X156310000Y-112150000D01*
X156310000Y-109700000D01*
X153586319Y-106976319D01*
X153552834Y-106914996D01*
X153550000Y-106888638D01*
X153550000Y-101021362D01*
X153569685Y-100954323D01*
X153586319Y-100933681D01*
X156360000Y-98160000D01*
X156360000Y-96210000D01*
X153326319Y-93176319D01*
X153292834Y-93114996D01*
X153290000Y-93088638D01*
X153290000Y-86961362D01*
X153309685Y-86894323D01*
X153326319Y-86873681D01*
X156280000Y-83920000D01*
X156280000Y-81690000D01*
X153536319Y-78946319D01*
X153502834Y-78884996D01*
X153500000Y-78858638D01*
X153500000Y-72931362D01*
X153519685Y-72864323D01*
X153536319Y-72843681D01*
X156250000Y-70130000D01*
X156250000Y-67700000D01*
X153466319Y-64916319D01*
X153432834Y-64854996D01*
X153430000Y-64828638D01*
X153430000Y-59011362D01*
X153449685Y-58944323D01*
X153466319Y-58923681D01*
X156190000Y-56200000D01*
X156190000Y-53680000D01*
X153416319Y-50906319D01*
X153382834Y-50844996D01*
X153380000Y-50818638D01*
X153380000Y-46491362D01*
X153394691Y-46441327D01*
X153390000Y-46430000D01*
X138380000Y-46430000D01*
X138379999Y-46430000D01*
X138186319Y-46623681D01*
X138124996Y-46657166D01*
X138098638Y-46660000D01*
X138041362Y-46660000D01*
X137974323Y-46640315D01*
X137953681Y-46623681D01*
X137430000Y-46100000D01*
X133300000Y-46100000D01*
X133299999Y-46100000D01*
X132966319Y-46433681D01*
X132904996Y-46467166D01*
X132878638Y-46470000D01*
X129029999Y-46470000D01*
X128727681Y-46772319D01*
X128666358Y-46805804D01*
X128596666Y-46800820D01*
X128552319Y-46772319D01*
X127880000Y-46100000D01*
X123990000Y-46100000D01*
X123989999Y-46100000D01*
X123546319Y-46543681D01*
X123484996Y-46577166D01*
X123458638Y-46580000D01*
X123041362Y-46580000D01*
X122974323Y-46560315D01*
X122953681Y-46543681D01*
X122720000Y-46310000D01*
X119900000Y-46310000D01*
X119899999Y-46310000D01*
X119447681Y-46762319D01*
X119386358Y-46795804D01*
X119316666Y-46790820D01*
X119272319Y-46762319D01*
X118666319Y-46156319D01*
X118654290Y-46134290D01*
X118630000Y-46110000D01*
X114600000Y-46110000D01*
X114599999Y-46110000D01*
X114296319Y-46413681D01*
X114234996Y-46447166D01*
X114208638Y-46450000D01*
X64461362Y-46450000D01*
X64394323Y-46430315D01*
X64373681Y-46413681D01*
X64266319Y-46306319D01*
X64232834Y-46244996D01*
X64230000Y-46218638D01*
X64230000Y-45561362D01*
X64249685Y-45494323D01*
X64266319Y-45473681D01*
X64423681Y-45316319D01*
X64485004Y-45282834D01*
X64511362Y-45280000D01*
X113668638Y-45280000D01*
X113702694Y-45290000D01*
X113730000Y-45290000D01*
X114003681Y-45016319D01*
X114065004Y-44982834D01*
X114091362Y-44980000D01*
X119298638Y-44980000D01*
X119365677Y-44999685D01*
G37*
%TD.AperFunction*%
%TD*%
%TA.AperFunction,Conductor*%
%TO.N,Net-(J1-Pin_1)*%
G36*
X155515677Y-23179685D02*
G01*
X155536319Y-23196319D01*
X157623681Y-25283681D01*
X157657166Y-25345004D01*
X157660000Y-25371362D01*
X157660000Y-29928638D01*
X157640315Y-29995677D01*
X157623681Y-30016319D01*
X155990000Y-31649999D01*
X155990000Y-35310000D01*
X159883681Y-39203681D01*
X159917166Y-39265004D01*
X159920000Y-39291362D01*
X159920000Y-43648638D01*
X159900315Y-43715677D01*
X159883681Y-43736319D01*
X156610000Y-47009999D01*
X156610000Y-48850000D01*
X159883681Y-52123681D01*
X159917166Y-52185004D01*
X159920000Y-52211362D01*
X159920000Y-57728638D01*
X159900315Y-57795677D01*
X159883681Y-57816319D01*
X156650000Y-61049999D01*
X156650000Y-62840000D01*
X159973681Y-66163681D01*
X160007166Y-66225004D01*
X160010000Y-66251362D01*
X160010000Y-71638638D01*
X159990315Y-71705677D01*
X159973681Y-71726319D01*
X156650000Y-75049999D01*
X156650000Y-76880000D01*
X159933681Y-80163681D01*
X159967166Y-80225004D01*
X159970000Y-80251362D01*
X159970000Y-85598638D01*
X159950315Y-85665677D01*
X159933681Y-85686319D01*
X157840000Y-87779999D01*
X157840000Y-92430000D01*
X159973681Y-94563681D01*
X160007166Y-94625004D01*
X160010000Y-94651362D01*
X160010000Y-99688638D01*
X159990315Y-99755677D01*
X159973681Y-99776319D01*
X156710000Y-103039999D01*
X156710000Y-104850000D01*
X159983681Y-108123681D01*
X160017166Y-108185004D01*
X160020000Y-108211362D01*
X160020000Y-113658638D01*
X160000315Y-113725677D01*
X159983681Y-113746319D01*
X156750000Y-116979999D01*
X156750000Y-118890000D01*
X160043681Y-122183681D01*
X160077166Y-122245004D01*
X160080000Y-122271362D01*
X160080000Y-127618638D01*
X160060315Y-127685677D01*
X160043681Y-127706319D01*
X156760000Y-130989999D01*
X156760000Y-132790000D01*
X160033681Y-136063681D01*
X160067166Y-136125004D01*
X160070000Y-136151362D01*
X160070000Y-141648638D01*
X160050315Y-141715677D01*
X160033681Y-141736319D01*
X156780000Y-144989999D01*
X156780000Y-158398638D01*
X156760315Y-158465677D01*
X156743681Y-158486319D01*
X151210000Y-164019999D01*
X151210000Y-173024982D01*
X151190315Y-173092021D01*
X151156521Y-173126976D01*
X144210001Y-177929998D01*
X144210000Y-177930000D01*
X144210000Y-179956000D01*
X144190315Y-180023039D01*
X144137511Y-180068794D01*
X144086000Y-180080000D01*
X143434000Y-180080000D01*
X143366961Y-180060315D01*
X143321206Y-180007511D01*
X143310000Y-179956000D01*
X143310000Y-177374585D01*
X143329685Y-177307546D01*
X143362920Y-177272980D01*
X149700000Y-172840000D01*
X149700000Y-163531362D01*
X149719685Y-163464323D01*
X149736319Y-163443681D01*
X156193681Y-156986319D01*
X156215709Y-156974290D01*
X156240000Y-156950000D01*
X156240000Y-144581362D01*
X156259685Y-144514323D01*
X156276319Y-144493681D01*
X157376319Y-143393681D01*
X159380000Y-141390000D01*
X159380000Y-136480000D01*
X156186319Y-133286319D01*
X156152834Y-133224996D01*
X156150000Y-133198638D01*
X156150000Y-130631362D01*
X156169685Y-130564323D01*
X156186319Y-130543681D01*
X157236319Y-129493681D01*
X159370000Y-127360000D01*
X159370000Y-122470000D01*
X156176319Y-119276319D01*
X156142834Y-119214996D01*
X156140000Y-119188638D01*
X156140000Y-116621362D01*
X156159685Y-116554323D01*
X156176319Y-116533681D01*
X157226319Y-115483681D01*
X159350000Y-113360000D01*
X159350000Y-108510000D01*
X156136319Y-105296319D01*
X156102834Y-105234996D01*
X156100000Y-105208638D01*
X156100000Y-102611362D01*
X156119685Y-102544323D01*
X156136319Y-102523681D01*
X157206319Y-101453681D01*
X159340000Y-99320000D01*
X159340000Y-94890000D01*
X156866319Y-92416319D01*
X156832834Y-92354996D01*
X156830000Y-92328638D01*
X156830000Y-87581362D01*
X156849685Y-87514323D01*
X156866319Y-87493681D01*
X159240000Y-85120000D01*
X159240000Y-80530000D01*
X156066319Y-77356319D01*
X156032834Y-77294996D01*
X156030000Y-77268638D01*
X156030000Y-74701362D01*
X156049685Y-74634323D01*
X156066319Y-74613681D01*
X156116319Y-74563681D01*
X159230000Y-71450000D01*
X159230000Y-66480000D01*
X156016319Y-63266319D01*
X155982834Y-63204996D01*
X155980000Y-63178638D01*
X155980000Y-60641362D01*
X155999685Y-60574323D01*
X156016319Y-60553681D01*
X157016319Y-59553681D01*
X159230000Y-57340000D01*
X159230000Y-52510000D01*
X156036319Y-49316319D01*
X156002834Y-49254996D01*
X156000000Y-49228638D01*
X156000000Y-46711362D01*
X156019685Y-46644323D01*
X156036319Y-46623681D01*
X157146319Y-45513681D01*
X159230000Y-43430000D01*
X159230000Y-39640000D01*
X155376319Y-35786319D01*
X155342834Y-35724996D01*
X155340000Y-35698638D01*
X155340000Y-31211362D01*
X155359685Y-31144323D01*
X155376319Y-31123681D01*
X156070000Y-30430000D01*
X156970000Y-29530000D01*
X156970000Y-25640000D01*
X155210000Y-23880000D01*
X152519999Y-23880000D01*
X150706319Y-25693681D01*
X150644996Y-25727166D01*
X150618638Y-25730000D01*
X147741362Y-25730000D01*
X147674323Y-25710315D01*
X147653681Y-25693681D01*
X145860000Y-23900000D01*
X143270000Y-23900000D01*
X143269999Y-23900000D01*
X141456319Y-25713681D01*
X141394996Y-25747166D01*
X141368638Y-25750000D01*
X138421362Y-25750000D01*
X138354323Y-25730315D01*
X138333681Y-25713681D01*
X136560000Y-23940000D01*
X133920000Y-23940000D01*
X133919999Y-23940000D01*
X132146319Y-25713681D01*
X132084996Y-25747166D01*
X132058638Y-25750000D01*
X129071362Y-25750000D01*
X129004323Y-25730315D01*
X128983681Y-25713681D01*
X127210000Y-23940000D01*
X124670000Y-23940000D01*
X124669999Y-23940000D01*
X122856319Y-25753681D01*
X122794996Y-25787166D01*
X122768638Y-25790000D01*
X119811362Y-25790000D01*
X119744323Y-25770315D01*
X119723681Y-25753681D01*
X117960000Y-23990000D01*
X115270000Y-23990000D01*
X115269999Y-23990000D01*
X113476319Y-25783681D01*
X113414996Y-25817166D01*
X113388638Y-25820000D01*
X110511362Y-25820000D01*
X110444323Y-25800315D01*
X110423681Y-25783681D01*
X108650000Y-24010000D01*
X106060000Y-24010000D01*
X106059999Y-24010000D01*
X104316319Y-25753681D01*
X104254996Y-25787166D01*
X104228638Y-25790000D01*
X101151362Y-25790000D01*
X101084323Y-25770315D01*
X101063681Y-25753681D01*
X99270000Y-23960000D01*
X96650000Y-23960000D01*
X96649999Y-23960000D01*
X94856319Y-25753681D01*
X94794996Y-25787166D01*
X94768638Y-25790000D01*
X91901362Y-25790000D01*
X91834323Y-25770315D01*
X91813681Y-25753681D01*
X90030000Y-23970000D01*
X84460000Y-23970000D01*
X84459999Y-23970000D01*
X82646319Y-25783681D01*
X82584996Y-25817166D01*
X82558638Y-25820000D01*
X79551362Y-25820000D01*
X79484323Y-25800315D01*
X79463681Y-25783681D01*
X77750000Y-24070000D01*
X75110000Y-24070000D01*
X75109999Y-24070000D01*
X73396319Y-25783681D01*
X73334996Y-25817166D01*
X73308638Y-25820000D01*
X70231362Y-25820000D01*
X70164323Y-25800315D01*
X70143681Y-25783681D01*
X68410000Y-24050000D01*
X65900000Y-24050000D01*
X65899999Y-24050000D01*
X64126319Y-25823681D01*
X64064996Y-25857166D01*
X64038638Y-25860000D01*
X60961362Y-25860000D01*
X60894323Y-25840315D01*
X60873681Y-25823681D01*
X59100000Y-24050000D01*
X56520000Y-24050000D01*
X56519999Y-24050000D01*
X54860000Y-25709999D01*
X54860000Y-30430000D01*
X56053681Y-31623681D01*
X56087166Y-31685004D01*
X56090000Y-31711362D01*
X56090000Y-36648638D01*
X56070315Y-36715677D01*
X56053681Y-36736319D01*
X54150000Y-38639999D01*
X54150000Y-43610000D01*
X56053681Y-45513681D01*
X56087166Y-45575004D01*
X56090000Y-45601362D01*
X56090000Y-50488638D01*
X56070315Y-50555677D01*
X56053681Y-50576319D01*
X54110000Y-52519999D01*
X54110000Y-57580000D01*
X56083681Y-59553681D01*
X56117166Y-59615004D01*
X56120000Y-59641362D01*
X56120000Y-63448638D01*
X56100315Y-63515677D01*
X56083681Y-63536319D01*
X52620000Y-66999999D01*
X52620000Y-71040000D01*
X56143681Y-74563681D01*
X56177166Y-74625004D01*
X56180000Y-74651362D01*
X56180000Y-77478638D01*
X56160315Y-77545677D01*
X56143681Y-77566319D01*
X53440000Y-80269999D01*
X53440000Y-85110000D01*
X56543681Y-88213681D01*
X56577166Y-88275004D01*
X56580000Y-88301362D01*
X56580000Y-91618638D01*
X56560315Y-91685677D01*
X56543681Y-91706319D01*
X54160000Y-94089999D01*
X54160000Y-99470000D01*
X56143681Y-101453681D01*
X56177166Y-101515004D01*
X56180000Y-101541362D01*
X56180000Y-106448638D01*
X56160315Y-106515677D01*
X56143681Y-106536319D01*
X54190000Y-108489999D01*
X54190000Y-113490000D01*
X56183681Y-115483681D01*
X56217166Y-115545004D01*
X56220000Y-115571362D01*
X56220000Y-120448638D01*
X56200315Y-120515677D01*
X56183681Y-120536319D01*
X54200000Y-122519999D01*
X54200000Y-127470000D01*
X56223681Y-129493681D01*
X56257166Y-129555004D01*
X56260000Y-129581362D01*
X56260000Y-134428638D01*
X56240315Y-134495677D01*
X56223681Y-134516319D01*
X54290000Y-136449999D01*
X54290000Y-141450000D01*
X56233681Y-143393681D01*
X56267166Y-143455004D01*
X56270000Y-143481362D01*
X56270000Y-148348638D01*
X56250315Y-148415677D01*
X56233681Y-148436319D01*
X54330000Y-150339999D01*
X54330000Y-150340000D01*
X54330000Y-153300000D01*
X56910000Y-155880000D01*
X59710000Y-155880000D01*
X61143681Y-154446319D01*
X61205004Y-154412834D01*
X61231362Y-154410000D01*
X64248638Y-154410000D01*
X64315677Y-154429685D01*
X64336319Y-154446319D01*
X65780000Y-155890000D01*
X68960000Y-155890000D01*
X70373681Y-154476319D01*
X70435004Y-154442834D01*
X70461362Y-154440000D01*
X73558638Y-154440000D01*
X73625677Y-154459685D01*
X73646319Y-154476319D01*
X75080000Y-155910000D01*
X78220000Y-155910000D01*
X79723681Y-154406319D01*
X79785004Y-154372834D01*
X79811362Y-154370000D01*
X82828638Y-154370000D01*
X82895677Y-154389685D01*
X82916319Y-154406319D01*
X84400000Y-155890000D01*
X90540000Y-155890000D01*
X92033681Y-154396319D01*
X92095004Y-154362834D01*
X92121362Y-154360000D01*
X94088638Y-154360000D01*
X94155677Y-154379685D01*
X94176319Y-154396319D01*
X96410000Y-156630000D01*
X100190000Y-156630000D01*
X101633681Y-155186319D01*
X101695004Y-155152834D01*
X101721362Y-155150000D01*
X103698638Y-155150000D01*
X103765677Y-155169685D01*
X103786319Y-155186319D01*
X105950000Y-157350000D01*
X109348638Y-157350000D01*
X109415677Y-157369685D01*
X109436319Y-157386319D01*
X112043681Y-159993681D01*
X112077166Y-160055004D01*
X112080000Y-160081362D01*
X112080000Y-172510000D01*
X118656996Y-177102985D01*
X118700689Y-177157507D01*
X118710000Y-177204649D01*
X118710000Y-179956000D01*
X118690315Y-180023039D01*
X118637511Y-180068794D01*
X118586000Y-180080000D01*
X117934000Y-180080000D01*
X117866961Y-180060315D01*
X117821206Y-180007511D01*
X117810000Y-179956000D01*
X117810000Y-177680000D01*
X117809999Y-177679999D01*
X110652891Y-172670023D01*
X110609258Y-172615452D01*
X110600000Y-172568438D01*
X110600000Y-160000000D01*
X108520000Y-157920000D01*
X105921362Y-157920000D01*
X105854323Y-157900315D01*
X105833681Y-157883681D01*
X103790000Y-155840000D01*
X101970000Y-155840000D01*
X101969999Y-155840000D01*
X100516319Y-157293681D01*
X100454996Y-157327166D01*
X100428638Y-157330000D01*
X96191362Y-157330000D01*
X96124323Y-157310315D01*
X96103681Y-157293681D01*
X93910000Y-155100000D01*
X92340000Y-155100000D01*
X92339999Y-155100000D01*
X90906319Y-156533681D01*
X90844996Y-156567166D01*
X90818638Y-156570000D01*
X84121362Y-156570000D01*
X84054323Y-156550315D01*
X84033681Y-156533681D01*
X82600000Y-155100000D01*
X80050000Y-155100000D01*
X80049999Y-155100000D01*
X78606319Y-156543681D01*
X78544996Y-156577166D01*
X78518638Y-156580000D01*
X74851362Y-156580000D01*
X74784323Y-156560315D01*
X74763681Y-156543681D01*
X73330000Y-155110000D01*
X70790000Y-155110000D01*
X70789999Y-155110000D01*
X69346319Y-156553681D01*
X69284996Y-156587166D01*
X69258638Y-156590000D01*
X65571362Y-156590000D01*
X65504323Y-156570315D01*
X65483681Y-156553681D01*
X64030000Y-155100000D01*
X61500000Y-155100000D01*
X61499999Y-155100000D01*
X60056319Y-156543681D01*
X59994996Y-156577166D01*
X59968638Y-156580000D01*
X56701362Y-156580000D01*
X56634323Y-156560315D01*
X56613681Y-156543681D01*
X53656319Y-153586319D01*
X53622834Y-153524996D01*
X53620000Y-153498638D01*
X53620000Y-150091362D01*
X53639685Y-150024323D01*
X53656319Y-150003681D01*
X55560000Y-148100000D01*
X55560000Y-143780000D01*
X53606319Y-141826319D01*
X53572834Y-141764996D01*
X53570000Y-141738638D01*
X53570000Y-136191362D01*
X53589685Y-136124323D01*
X53606319Y-136103681D01*
X53646319Y-136063681D01*
X55560000Y-134150000D01*
X55560000Y-129780000D01*
X53576319Y-127796319D01*
X53542834Y-127734996D01*
X53540000Y-127708638D01*
X53540000Y-122181362D01*
X53559685Y-122114323D01*
X53576319Y-122093681D01*
X55510000Y-120160000D01*
X55510000Y-115760000D01*
X53576319Y-113826319D01*
X53542834Y-113764996D01*
X53540000Y-113738638D01*
X53540000Y-108171362D01*
X53559685Y-108104323D01*
X53576319Y-108083681D01*
X55460000Y-106200000D01*
X55460000Y-101700000D01*
X53506319Y-99746319D01*
X53472834Y-99684996D01*
X53470000Y-99658638D01*
X53470000Y-93831362D01*
X53489685Y-93764323D01*
X53506319Y-93743681D01*
X54110000Y-93140000D01*
X54850000Y-92400000D01*
X54850000Y-87590000D01*
X53480000Y-86220000D01*
X44310000Y-86220000D01*
X44310000Y-93140000D01*
X45190000Y-94020000D01*
X45836000Y-94020000D01*
X45903039Y-94039685D01*
X45948794Y-94092489D01*
X45960000Y-94144000D01*
X45960000Y-99258638D01*
X45940315Y-99325677D01*
X45923681Y-99346319D01*
X45266319Y-100003681D01*
X45204996Y-100037166D01*
X45178638Y-100040000D01*
X36821362Y-100040000D01*
X36754323Y-100020315D01*
X36733681Y-100003681D01*
X36026319Y-99296319D01*
X35992834Y-99234996D01*
X35990000Y-99208638D01*
X35990000Y-96039998D01*
X38959268Y-96039998D01*
X38959268Y-96040001D01*
X38979429Y-96321893D01*
X39039500Y-96598030D01*
X39039502Y-96598037D01*
X39100821Y-96762440D01*
X39138263Y-96862827D01*
X39138265Y-96862831D01*
X39273698Y-97110859D01*
X39273699Y-97110860D01*
X39273702Y-97110865D01*
X39443063Y-97337104D01*
X39443067Y-97337108D01*
X39443072Y-97337114D01*
X39642885Y-97536927D01*
X39642891Y-97536932D01*
X39642896Y-97536937D01*
X39869135Y-97706298D01*
X39869139Y-97706300D01*
X39869140Y-97706301D01*
X40117168Y-97841734D01*
X40117172Y-97841736D01*
X40117174Y-97841737D01*
X40381963Y-97940498D01*
X40520037Y-97970534D01*
X40658106Y-98000570D01*
X40658108Y-98000570D01*
X40658112Y-98000571D01*
X40908614Y-98018487D01*
X40939999Y-98020732D01*
X40940000Y-98020732D01*
X40940001Y-98020732D01*
X40968241Y-98018712D01*
X41221888Y-98000571D01*
X41498037Y-97940498D01*
X41762826Y-97841737D01*
X42010865Y-97706298D01*
X42237104Y-97536937D01*
X42436937Y-97337104D01*
X42606298Y-97110865D01*
X42741737Y-96862826D01*
X42840498Y-96598037D01*
X42900571Y-96321888D01*
X42920732Y-96040000D01*
X42900571Y-95758112D01*
X42893410Y-95725195D01*
X42854761Y-95547529D01*
X42840498Y-95481963D01*
X42741737Y-95217174D01*
X42664377Y-95075500D01*
X42606301Y-94969140D01*
X42606300Y-94969139D01*
X42606298Y-94969135D01*
X42436937Y-94742896D01*
X42436932Y-94742891D01*
X42436927Y-94742885D01*
X42237114Y-94543072D01*
X42237108Y-94543067D01*
X42237104Y-94543063D01*
X42010865Y-94373702D01*
X42010860Y-94373699D01*
X42010859Y-94373698D01*
X41762831Y-94238265D01*
X41762827Y-94238263D01*
X41623526Y-94186307D01*
X41498037Y-94139502D01*
X41498033Y-94139501D01*
X41498030Y-94139500D01*
X41221893Y-94079429D01*
X40940001Y-94059268D01*
X40939999Y-94059268D01*
X40658106Y-94079429D01*
X40381969Y-94139500D01*
X40381964Y-94139501D01*
X40381963Y-94139502D01*
X40317944Y-94163379D01*
X40117172Y-94238263D01*
X40117168Y-94238265D01*
X39869140Y-94373698D01*
X39869139Y-94373699D01*
X39642897Y-94543062D01*
X39642885Y-94543072D01*
X39443072Y-94742885D01*
X39443062Y-94742897D01*
X39273699Y-94969139D01*
X39273698Y-94969140D01*
X39138265Y-95217168D01*
X39138263Y-95217172D01*
X39070449Y-95398991D01*
X39040611Y-95478991D01*
X39039500Y-95481969D01*
X38979429Y-95758106D01*
X38959268Y-96039998D01*
X35990000Y-96039998D01*
X35990000Y-94044000D01*
X36009685Y-93976961D01*
X36062489Y-93931206D01*
X36114000Y-93920000D01*
X36640000Y-93920000D01*
X37340000Y-93220000D01*
X37340000Y-82314000D01*
X37359685Y-82246961D01*
X37412489Y-82201206D01*
X37464000Y-82190000D01*
X52670000Y-82190000D01*
X52670000Y-79941362D01*
X52689685Y-79874323D01*
X52706319Y-79853681D01*
X55420000Y-77140000D01*
X55420000Y-74950000D01*
X51956319Y-71486319D01*
X51922834Y-71424996D01*
X51920000Y-71398638D01*
X51920000Y-66631362D01*
X51939685Y-66564323D01*
X51956319Y-66543681D01*
X52336319Y-66163681D01*
X55380000Y-63120000D01*
X55380000Y-59940000D01*
X53396319Y-57956319D01*
X53362834Y-57894996D01*
X53360000Y-57868638D01*
X53360000Y-52241362D01*
X53379685Y-52174323D01*
X53396319Y-52153681D01*
X53426319Y-52123681D01*
X55370000Y-50180000D01*
X55370000Y-45940000D01*
X53356319Y-43926319D01*
X53322834Y-43864996D01*
X53320000Y-43838638D01*
X53320000Y-38451362D01*
X53339685Y-38384323D01*
X53356319Y-38363681D01*
X55420000Y-36300000D01*
X55420000Y-32000000D01*
X54146319Y-30726319D01*
X54112834Y-30664996D01*
X54110000Y-30638638D01*
X54110000Y-25501362D01*
X54129685Y-25434323D01*
X54146319Y-25413681D01*
X56203681Y-23356319D01*
X56265004Y-23322834D01*
X56291362Y-23320000D01*
X59388638Y-23320000D01*
X59455677Y-23339685D01*
X59476319Y-23356319D01*
X61350000Y-25230000D01*
X63620000Y-25230000D01*
X65493681Y-23356319D01*
X65555004Y-23322834D01*
X65581362Y-23320000D01*
X68798638Y-23320000D01*
X68865677Y-23339685D01*
X68886319Y-23356319D01*
X70680000Y-25150000D01*
X72990000Y-25150000D01*
X74803681Y-23336319D01*
X74865004Y-23302834D01*
X74891362Y-23300000D01*
X78048638Y-23300000D01*
X78115677Y-23319685D01*
X78136319Y-23336319D01*
X80000000Y-25200000D01*
X82180000Y-25200000D01*
X84103681Y-23276319D01*
X84165004Y-23242834D01*
X84191362Y-23240000D01*
X90298638Y-23240000D01*
X90365677Y-23259685D01*
X90386319Y-23276319D01*
X92260000Y-25150000D01*
X94440000Y-25150000D01*
X96303681Y-23286319D01*
X96365004Y-23252834D01*
X96391362Y-23250000D01*
X99568638Y-23250000D01*
X99635677Y-23269685D01*
X99656319Y-23286319D01*
X101490000Y-25120000D01*
X103710000Y-25120000D01*
X105523681Y-23306319D01*
X105585004Y-23272834D01*
X105611362Y-23270000D01*
X108888638Y-23270000D01*
X108955677Y-23289685D01*
X108976319Y-23306319D01*
X110790000Y-25120000D01*
X113100000Y-25120000D01*
X114913681Y-23306319D01*
X114975004Y-23272834D01*
X115001362Y-23270000D01*
X118218638Y-23270000D01*
X118285677Y-23289685D01*
X118306319Y-23306319D01*
X120080000Y-25080000D01*
X122380000Y-25080000D01*
X124183681Y-23276319D01*
X124245004Y-23242834D01*
X124271362Y-23240000D01*
X127498638Y-23240000D01*
X127565677Y-23259685D01*
X127586319Y-23276319D01*
X129390000Y-25080000D01*
X131710000Y-25080000D01*
X133543681Y-23246319D01*
X133605004Y-23212834D01*
X133631362Y-23210000D01*
X136818638Y-23210000D01*
X136885677Y-23229685D01*
X136906319Y-23246319D01*
X138740000Y-25080000D01*
X141030000Y-25080000D01*
X142893681Y-23216319D01*
X142955004Y-23182834D01*
X142981362Y-23180000D01*
X146088638Y-23180000D01*
X146155677Y-23199685D01*
X146176319Y-23216319D01*
X147990000Y-25030000D01*
X150390000Y-25030000D01*
X152223681Y-23196319D01*
X152285004Y-23162834D01*
X152311362Y-23160000D01*
X155448638Y-23160000D01*
X155515677Y-23179685D01*
G37*
%TD.AperFunction*%
%TD*%
%TA.AperFunction,Conductor*%
%TO.N,Net-(J1-Pin_12)*%
G36*
X139055203Y-147955649D02*
G01*
X139061681Y-147961681D01*
X139450000Y-148350000D01*
X139946000Y-148350000D01*
X140013039Y-148369685D01*
X140058794Y-148422489D01*
X140070000Y-148474000D01*
X140070000Y-155050000D01*
X141113681Y-156093681D01*
X141147166Y-156155004D01*
X141150000Y-156181362D01*
X141150000Y-170236028D01*
X141130315Y-170303067D01*
X141097869Y-170337077D01*
X137410000Y-172960000D01*
X137410000Y-180076000D01*
X137390315Y-180143039D01*
X137337511Y-180188794D01*
X137286000Y-180200000D01*
X136634000Y-180200000D01*
X136566961Y-180180315D01*
X136521206Y-180127511D01*
X136510000Y-180076000D01*
X136510000Y-172433536D01*
X136529685Y-172366497D01*
X136561571Y-172332888D01*
X139720000Y-170060000D01*
X139720000Y-156730000D01*
X138886319Y-155896319D01*
X138852834Y-155834996D01*
X138850000Y-155808638D01*
X138850000Y-148049362D01*
X138869685Y-147982323D01*
X138922489Y-147936568D01*
X138991647Y-147926624D01*
X139055203Y-147955649D01*
G37*
%TD.AperFunction*%
%TA.AperFunction,Conductor*%
G36*
X139055203Y-133965649D02*
G01*
X139061681Y-133971681D01*
X139500000Y-134410000D01*
X139926000Y-134410000D01*
X139993039Y-134429685D01*
X140038794Y-134482489D01*
X140050000Y-134534000D01*
X140050000Y-143388638D01*
X140030315Y-143455677D01*
X140013681Y-143476319D01*
X139496319Y-143993681D01*
X139434996Y-144027166D01*
X139408638Y-144030000D01*
X138974000Y-144030000D01*
X138906961Y-144010315D01*
X138861206Y-143957511D01*
X138850000Y-143906000D01*
X138850000Y-134059362D01*
X138869685Y-133992323D01*
X138922489Y-133946568D01*
X138991647Y-133936624D01*
X139055203Y-133965649D01*
G37*
%TD.AperFunction*%
%TA.AperFunction,Conductor*%
G36*
X139055203Y-119965649D02*
G01*
X139061681Y-119971681D01*
X139530000Y-120440000D01*
X139886000Y-120440000D01*
X139953039Y-120459685D01*
X139998794Y-120512489D01*
X140010000Y-120564000D01*
X140010000Y-129258638D01*
X139990315Y-129325677D01*
X139973681Y-129346319D01*
X139386319Y-129933681D01*
X139324996Y-129967166D01*
X139298638Y-129970000D01*
X138974000Y-129970000D01*
X138906961Y-129950315D01*
X138861206Y-129897511D01*
X138850000Y-129846000D01*
X138850000Y-120059362D01*
X138869685Y-119992323D01*
X138922489Y-119946568D01*
X138991647Y-119936624D01*
X139055203Y-119965649D01*
G37*
%TD.AperFunction*%
%TA.AperFunction,Conductor*%
G36*
X139825677Y-106319685D02*
G01*
X139846319Y-106336319D01*
X139943681Y-106433681D01*
X139977166Y-106495004D01*
X139980000Y-106521362D01*
X139980000Y-115328638D01*
X139960315Y-115395677D01*
X139943681Y-115416319D01*
X139336319Y-116023681D01*
X139274996Y-116057166D01*
X139248638Y-116060000D01*
X138974000Y-116060000D01*
X138906961Y-116040315D01*
X138861206Y-115987511D01*
X138850000Y-115936000D01*
X138850000Y-106491362D01*
X138869685Y-106424323D01*
X138886319Y-106403681D01*
X138953681Y-106336319D01*
X139015004Y-106302834D01*
X139041362Y-106300000D01*
X139758638Y-106300000D01*
X139825677Y-106319685D01*
G37*
%TD.AperFunction*%
%TD*%
%TA.AperFunction,Conductor*%
%TO.N,Net-(J1-Pin_10)*%
G36*
X137955677Y-58969685D02*
G01*
X137976319Y-58986319D01*
X138230000Y-59240000D01*
X147626000Y-59240000D01*
X147693039Y-59259685D01*
X147738794Y-59312489D01*
X147750000Y-59364000D01*
X147750000Y-60238638D01*
X147730315Y-60305677D01*
X147713681Y-60326319D01*
X147586319Y-60453681D01*
X147524996Y-60487166D01*
X147498638Y-60490000D01*
X141561362Y-60490000D01*
X141494323Y-60470315D01*
X141473681Y-60453681D01*
X141220000Y-60200000D01*
X138930000Y-60200000D01*
X138929999Y-60200000D01*
X138496319Y-60633681D01*
X138434996Y-60667166D01*
X138408638Y-60670000D01*
X138001362Y-60670000D01*
X137934323Y-60650315D01*
X137913681Y-60633681D01*
X137300000Y-60020000D01*
X133430000Y-60020000D01*
X133429999Y-60020000D01*
X133006319Y-60443681D01*
X132944996Y-60477166D01*
X132918638Y-60480000D01*
X132371362Y-60480000D01*
X132304323Y-60460315D01*
X132283681Y-60443681D01*
X131910000Y-60070000D01*
X129270000Y-60070000D01*
X129269999Y-60070000D01*
X128807681Y-60532319D01*
X128746358Y-60565804D01*
X128676666Y-60560820D01*
X128632319Y-60532319D01*
X128110000Y-60010000D01*
X124310000Y-60010000D01*
X124309999Y-60010000D01*
X123646319Y-60673681D01*
X123584996Y-60707166D01*
X123558638Y-60710000D01*
X123231362Y-60710000D01*
X123164323Y-60690315D01*
X123143681Y-60673681D01*
X122590000Y-60120000D01*
X119870000Y-60120000D01*
X119869999Y-60120000D01*
X119437681Y-60552319D01*
X119376358Y-60585804D01*
X119306666Y-60580820D01*
X119262319Y-60552319D01*
X118750000Y-60040000D01*
X114810000Y-60040000D01*
X114809999Y-60040000D01*
X114216319Y-60633681D01*
X114154996Y-60667166D01*
X114128638Y-60670000D01*
X113951362Y-60670000D01*
X113884323Y-60650315D01*
X113863681Y-60633681D01*
X113320000Y-60090000D01*
X110560000Y-60090000D01*
X110559999Y-60090000D01*
X110176319Y-60473681D01*
X110114996Y-60507166D01*
X110088638Y-60510000D01*
X104471362Y-60510000D01*
X104404323Y-60490315D01*
X104383681Y-60473681D01*
X104100000Y-60190000D01*
X101230000Y-60190000D01*
X101229999Y-60190000D01*
X100906319Y-60513681D01*
X100844996Y-60547166D01*
X100818638Y-60550000D01*
X95371362Y-60550000D01*
X95304323Y-60530315D01*
X95283681Y-60513681D01*
X95040000Y-60270000D01*
X91970000Y-60270000D01*
X91969999Y-60270000D01*
X91746319Y-60493681D01*
X91684996Y-60527166D01*
X91658638Y-60530000D01*
X82991362Y-60530000D01*
X82924323Y-60510315D01*
X82903681Y-60493681D01*
X82570000Y-60160000D01*
X79850000Y-60160000D01*
X79849999Y-60160000D01*
X79566319Y-60443681D01*
X79504996Y-60477166D01*
X79478638Y-60480000D01*
X73521362Y-60480000D01*
X73454323Y-60460315D01*
X73433681Y-60443681D01*
X73150000Y-60160000D01*
X70390000Y-60160000D01*
X70389999Y-60160000D01*
X70066319Y-60483681D01*
X70004996Y-60517166D01*
X69978638Y-60520000D01*
X63941362Y-60520000D01*
X63874323Y-60500315D01*
X63853681Y-60483681D01*
X63620000Y-60250000D01*
X61350000Y-60250000D01*
X61349999Y-60250000D01*
X61056319Y-60543681D01*
X60994996Y-60577166D01*
X60968638Y-60580000D01*
X57590000Y-60580000D01*
X57590000Y-64068638D01*
X57570315Y-64135677D01*
X57553681Y-64156319D01*
X54146319Y-67563681D01*
X54124290Y-67575709D01*
X54100000Y-67600000D01*
X54100000Y-70480000D01*
X57613681Y-73993681D01*
X57647166Y-74055004D01*
X57650000Y-74081362D01*
X57650000Y-78028638D01*
X57630315Y-78095677D01*
X57613681Y-78116319D01*
X54880000Y-80849999D01*
X54880000Y-80850000D01*
X54880000Y-83500000D01*
X56910000Y-85530000D01*
X59030000Y-85530000D01*
X61883681Y-82676319D01*
X61945004Y-82642834D01*
X61971362Y-82640000D01*
X63348638Y-82640000D01*
X63415677Y-82659685D01*
X63436319Y-82676319D01*
X66270000Y-85510000D01*
X68390000Y-85510000D01*
X71193681Y-82706319D01*
X71255004Y-82672834D01*
X71281362Y-82670000D01*
X72618638Y-82670000D01*
X72685677Y-82689685D01*
X72706319Y-82706319D01*
X75550000Y-85550000D01*
X77630000Y-85550000D01*
X80433681Y-82746319D01*
X80495004Y-82712834D01*
X80521362Y-82710000D01*
X81908638Y-82710000D01*
X81975677Y-82729685D01*
X81996319Y-82746319D01*
X84770000Y-85520000D01*
X89910000Y-85520000D01*
X92733681Y-82696319D01*
X92795004Y-82662834D01*
X92821362Y-82660000D01*
X94198638Y-82660000D01*
X94265677Y-82679685D01*
X94286319Y-82696319D01*
X97090000Y-85500000D01*
X99260000Y-85500000D01*
X102053681Y-82706319D01*
X102115004Y-82672834D01*
X102141362Y-82670000D01*
X103498638Y-82670000D01*
X103565677Y-82689685D01*
X103586319Y-82706319D01*
X106370000Y-85490000D01*
X108510000Y-85490000D01*
X111313681Y-82686319D01*
X111375004Y-82652834D01*
X111401362Y-82650000D01*
X112748638Y-82650000D01*
X112815677Y-82669685D01*
X112836319Y-82686319D01*
X115640000Y-85490000D01*
X117770000Y-85490000D01*
X120623681Y-82636319D01*
X120685004Y-82602834D01*
X120711362Y-82600000D01*
X122058638Y-82600000D01*
X122125677Y-82619685D01*
X122146319Y-82636319D01*
X124990000Y-85480000D01*
X127140000Y-85480000D01*
X129943681Y-82676319D01*
X130005004Y-82642834D01*
X130031362Y-82640000D01*
X131978638Y-82640000D01*
X132045677Y-82659685D01*
X132066319Y-82676319D01*
X135033681Y-85643681D01*
X135067166Y-85705004D01*
X135070000Y-85731362D01*
X135070000Y-94248638D01*
X135050315Y-94315677D01*
X135033681Y-94336319D01*
X133360000Y-96009999D01*
X133360000Y-97810000D01*
X135083681Y-99533681D01*
X135117166Y-99595004D01*
X135120000Y-99621362D01*
X135120000Y-108148638D01*
X135100315Y-108215677D01*
X135083681Y-108236319D01*
X133320000Y-109999999D01*
X133320000Y-111780000D01*
X135153681Y-113613681D01*
X135187166Y-113675004D01*
X135190000Y-113701362D01*
X135190000Y-122168638D01*
X135170315Y-122235677D01*
X135153681Y-122256319D01*
X133380000Y-124029999D01*
X133380000Y-125750000D01*
X135143681Y-127513681D01*
X135177166Y-127575004D01*
X135180000Y-127601362D01*
X135180000Y-136188638D01*
X135160315Y-136255677D01*
X135143681Y-136276319D01*
X133430000Y-137989999D01*
X133430000Y-139700000D01*
X135273681Y-141543681D01*
X135307166Y-141605004D01*
X135310000Y-141631362D01*
X135310000Y-150118638D01*
X135290315Y-150185677D01*
X135273681Y-150206319D01*
X133410000Y-152069999D01*
X133410000Y-153700000D01*
X136083681Y-156373681D01*
X136117166Y-156435004D01*
X136120000Y-156461362D01*
X136120000Y-168919044D01*
X136100315Y-168986083D01*
X136068074Y-169019947D01*
X134010000Y-170489999D01*
X134010000Y-180116000D01*
X133990315Y-180183039D01*
X133937511Y-180228794D01*
X133886000Y-180240000D01*
X133234000Y-180240000D01*
X133166961Y-180220315D01*
X133121206Y-180167511D01*
X133110000Y-180116000D01*
X133110000Y-169914400D01*
X133129685Y-169847361D01*
X133162682Y-169812962D01*
X134760000Y-168690000D01*
X134760000Y-157180000D01*
X131946319Y-154366319D01*
X131912834Y-154304996D01*
X131910000Y-154278638D01*
X131910000Y-152661362D01*
X131929685Y-152594323D01*
X131946319Y-152573681D01*
X132450001Y-152069999D01*
X134600000Y-149920000D01*
X134600000Y-141750000D01*
X132846319Y-139996319D01*
X132812834Y-139934996D01*
X132810000Y-139908638D01*
X132810000Y-137751362D01*
X132829685Y-137684323D01*
X132846319Y-137663681D01*
X134600000Y-135910000D01*
X134600000Y-127820000D01*
X132856319Y-126076319D01*
X132822834Y-126014996D01*
X132820000Y-125988638D01*
X132820000Y-123741362D01*
X132839685Y-123674323D01*
X132856319Y-123653681D01*
X134550000Y-121960000D01*
X134550000Y-113880000D01*
X132796319Y-112126319D01*
X132762834Y-112064996D01*
X132760000Y-112038638D01*
X132760000Y-109821362D01*
X132779685Y-109754323D01*
X132796319Y-109733681D01*
X134580000Y-107950000D01*
X134580000Y-99930000D01*
X132776319Y-98126319D01*
X132742834Y-98064996D01*
X132740000Y-98038638D01*
X132740000Y-95871362D01*
X132759685Y-95804323D01*
X132776319Y-95783681D01*
X134160000Y-94400000D01*
X134160000Y-85520000D01*
X131950000Y-83310000D01*
X130309999Y-83310000D01*
X127476319Y-86143681D01*
X127414996Y-86177166D01*
X127388638Y-86180000D01*
X124781362Y-86180000D01*
X124714323Y-86160315D01*
X124693681Y-86143681D01*
X121910000Y-83360000D01*
X120930000Y-83360000D01*
X120929999Y-83360000D01*
X118106319Y-86183681D01*
X118044996Y-86217166D01*
X118018638Y-86220000D01*
X115451362Y-86220000D01*
X115384323Y-86200315D01*
X115363681Y-86183681D01*
X112520000Y-83340000D01*
X111670000Y-83340000D01*
X111669999Y-83340000D01*
X108856319Y-86153681D01*
X108794996Y-86187166D01*
X108768638Y-86190000D01*
X106101362Y-86190000D01*
X106034323Y-86170315D01*
X106013681Y-86153681D01*
X103230000Y-83370000D01*
X102400000Y-83370000D01*
X102399999Y-83370000D01*
X99586319Y-86183681D01*
X99524996Y-86217166D01*
X99498638Y-86220000D01*
X96961362Y-86220000D01*
X96894323Y-86200315D01*
X96873681Y-86183681D01*
X94030000Y-83340000D01*
X93090000Y-83340000D01*
X93089999Y-83340000D01*
X90216319Y-86213681D01*
X90154996Y-86247166D01*
X90128638Y-86250000D01*
X84591362Y-86250000D01*
X84524323Y-86230315D01*
X84503681Y-86213681D01*
X81630000Y-83340000D01*
X80860000Y-83340000D01*
X80859999Y-83340000D01*
X77976319Y-86223681D01*
X77914996Y-86257166D01*
X77888638Y-86260000D01*
X75411362Y-86260000D01*
X75344323Y-86240315D01*
X75323681Y-86223681D01*
X72490000Y-83390000D01*
X71490000Y-83390000D01*
X71489999Y-83390000D01*
X68666319Y-86213681D01*
X68604996Y-86247166D01*
X68578638Y-86250000D01*
X66031362Y-86250000D01*
X65964323Y-86230315D01*
X65943681Y-86213681D01*
X63080000Y-83350000D01*
X62320000Y-83350000D01*
X62319999Y-83350000D01*
X59456319Y-86213681D01*
X59394996Y-86247166D01*
X59368638Y-86250000D01*
X56701362Y-86250000D01*
X56634323Y-86230315D01*
X56613681Y-86213681D01*
X54246319Y-83846319D01*
X54212834Y-83784996D01*
X54210000Y-83758638D01*
X54210000Y-80591362D01*
X54229685Y-80524323D01*
X54246319Y-80503681D01*
X56950000Y-77800000D01*
X56950000Y-74250000D01*
X53516319Y-70816319D01*
X53482834Y-70754996D01*
X53480000Y-70728638D01*
X53480000Y-67271362D01*
X53499685Y-67204323D01*
X53516319Y-67183681D01*
X56960000Y-63740000D01*
X56960000Y-59484000D01*
X56979685Y-59416961D01*
X57032489Y-59371206D01*
X57084000Y-59360000D01*
X113781193Y-59360000D01*
X113828646Y-59369439D01*
X113830000Y-59370000D01*
X113850000Y-59370000D01*
X114213681Y-59006319D01*
X114275004Y-58972834D01*
X114301362Y-58970000D01*
X119238638Y-58970000D01*
X119305677Y-58989685D01*
X119326319Y-59006319D01*
X119640000Y-59320000D01*
X123260000Y-59320000D01*
X123583681Y-58996319D01*
X123645004Y-58962834D01*
X123671362Y-58960000D01*
X128538638Y-58960000D01*
X128605677Y-58979685D01*
X128626319Y-58996319D01*
X128860000Y-59230000D01*
X132790000Y-59230000D01*
X133033681Y-58986319D01*
X133095004Y-58952834D01*
X133121362Y-58950000D01*
X137888638Y-58950000D01*
X137955677Y-58969685D01*
G37*
%TD.AperFunction*%
%TD*%
%TA.AperFunction,Conductor*%
%TO.N,Net-(J1-Pin_15)*%
G36*
X119325677Y-30929685D02*
G01*
X119346319Y-30946319D01*
X119790000Y-31390000D01*
X123160000Y-31390000D01*
X123573681Y-30976319D01*
X123635004Y-30942834D01*
X123661362Y-30940000D01*
X128528638Y-30940000D01*
X128595677Y-30959685D01*
X128616319Y-30976319D01*
X129020000Y-31380000D01*
X132470000Y-31380000D01*
X132843681Y-31006319D01*
X132905004Y-30972834D01*
X132931362Y-30970000D01*
X137898638Y-30970000D01*
X137965677Y-30989685D01*
X137986319Y-31006319D01*
X138370000Y-31390000D01*
X141900000Y-31390000D01*
X141923681Y-31366319D01*
X141985004Y-31332834D01*
X142011362Y-31330000D01*
X154586000Y-31330000D01*
X154653039Y-31349685D01*
X154698794Y-31402489D01*
X154710000Y-31454000D01*
X154710000Y-36250000D01*
X158393681Y-39933681D01*
X158427166Y-39995004D01*
X158430000Y-40021362D01*
X158430000Y-43048638D01*
X158410315Y-43115677D01*
X158393681Y-43136319D01*
X155310000Y-46219999D01*
X155310000Y-49690000D01*
X158383681Y-52763681D01*
X158417166Y-52825004D01*
X158420000Y-52851362D01*
X158420000Y-57138638D01*
X158400315Y-57205677D01*
X158383681Y-57226319D01*
X155380000Y-60229999D01*
X155380000Y-63710000D01*
X158413681Y-66743681D01*
X158447166Y-66805004D01*
X158450000Y-66831362D01*
X158450000Y-71128638D01*
X158430315Y-71195677D01*
X158413681Y-71216319D01*
X155400000Y-74229999D01*
X155400000Y-77710000D01*
X158403681Y-80713681D01*
X158437166Y-80775004D01*
X158440000Y-80801362D01*
X158440000Y-84908638D01*
X158420315Y-84975677D01*
X158403681Y-84996319D01*
X156100000Y-87299999D01*
X156100000Y-92720000D01*
X158483681Y-95103681D01*
X158517166Y-95165004D01*
X158520000Y-95191362D01*
X158520000Y-99108638D01*
X158500315Y-99175677D01*
X158483681Y-99196319D01*
X155440000Y-102239999D01*
X155440000Y-105650000D01*
X158523681Y-108733681D01*
X158557166Y-108795004D01*
X158560000Y-108821362D01*
X158560000Y-113098638D01*
X158540315Y-113165677D01*
X158523681Y-113186319D01*
X155490000Y-116219999D01*
X155490000Y-119680000D01*
X158583681Y-122773681D01*
X158617166Y-122835004D01*
X158620000Y-122861362D01*
X158620000Y-127078638D01*
X158600315Y-127145677D01*
X158583681Y-127166319D01*
X155560000Y-130189999D01*
X155560000Y-133690000D01*
X158583681Y-136713681D01*
X158617166Y-136775004D01*
X158620000Y-136801362D01*
X158620000Y-141098638D01*
X158600315Y-141165677D01*
X158583681Y-141186319D01*
X155550000Y-144219999D01*
X155550000Y-156258638D01*
X155530315Y-156325677D01*
X155513681Y-156346319D01*
X148696319Y-163163681D01*
X148674290Y-163175709D01*
X148650000Y-163200000D01*
X148650000Y-172415627D01*
X148630315Y-172482666D01*
X148597353Y-172517041D01*
X142510000Y-176799999D01*
X142510000Y-180156000D01*
X142490315Y-180223039D01*
X142437511Y-180268794D01*
X142386000Y-180280000D01*
X141734000Y-180280000D01*
X141666961Y-180260315D01*
X141621206Y-180207511D01*
X141610000Y-180156000D01*
X141610000Y-176074400D01*
X141629685Y-176007361D01*
X141662681Y-175972963D01*
X147200000Y-172080000D01*
X147200000Y-162541362D01*
X147219685Y-162474323D01*
X147236319Y-162453681D01*
X154930000Y-154760000D01*
X154930000Y-143801362D01*
X154949685Y-143734323D01*
X154966319Y-143713681D01*
X157870000Y-140810000D01*
X157870000Y-136960000D01*
X154926319Y-134016319D01*
X154892834Y-133954996D01*
X154890000Y-133928638D01*
X154890000Y-129801362D01*
X154909685Y-129734323D01*
X154926319Y-129713681D01*
X157870000Y-126770000D01*
X157870000Y-123050000D01*
X154916319Y-120096319D01*
X154882834Y-120034996D01*
X154880000Y-120008638D01*
X154880000Y-115761362D01*
X154899685Y-115694323D01*
X154916319Y-115673681D01*
X157870000Y-112720000D01*
X157870000Y-109140000D01*
X154876319Y-106146319D01*
X154842834Y-106084996D01*
X154840000Y-106058638D01*
X154840000Y-101741362D01*
X154859685Y-101674323D01*
X154876319Y-101653681D01*
X157850000Y-98680000D01*
X157850000Y-95580000D01*
X155106319Y-92836319D01*
X155072834Y-92774996D01*
X155070000Y-92748638D01*
X155070000Y-87291362D01*
X155089685Y-87224323D01*
X155106319Y-87203681D01*
X157800000Y-84510000D01*
X157800000Y-81100000D01*
X154786319Y-78086319D01*
X154752834Y-78024996D01*
X154750000Y-77998638D01*
X154750000Y-73841362D01*
X154769685Y-73774323D01*
X154786319Y-73753681D01*
X157760000Y-70780000D01*
X157760000Y-67050000D01*
X154776319Y-64066319D01*
X154742834Y-64004996D01*
X154740000Y-63978638D01*
X154740000Y-59781362D01*
X154759685Y-59714323D01*
X154776319Y-59693681D01*
X157670000Y-56800000D01*
X157670000Y-53090000D01*
X154736319Y-50156319D01*
X154702834Y-50094996D01*
X154700000Y-50068638D01*
X154700000Y-45861362D01*
X154719685Y-45794323D01*
X154736319Y-45773681D01*
X157670000Y-42840000D01*
X157670000Y-40160000D01*
X154066319Y-36556319D01*
X154032834Y-36494996D01*
X154030000Y-36468638D01*
X154030000Y-32510000D01*
X138340000Y-32510000D01*
X138339999Y-32510000D01*
X138097681Y-32752319D01*
X138036358Y-32785804D01*
X137966666Y-32780820D01*
X137922319Y-32752319D01*
X137220000Y-32050000D01*
X133580000Y-32050000D01*
X133579999Y-32050000D01*
X132916319Y-32713681D01*
X132854996Y-32747166D01*
X132828638Y-32750000D01*
X132211362Y-32750000D01*
X132144323Y-32730315D01*
X132123681Y-32713681D01*
X131730000Y-32320000D01*
X129390000Y-32320000D01*
X129389999Y-32320000D01*
X128947681Y-32762319D01*
X128886358Y-32795804D01*
X128816666Y-32790820D01*
X128772319Y-32762319D01*
X128100000Y-32090000D01*
X124110000Y-32090000D01*
X124109999Y-32090000D01*
X123666319Y-32533681D01*
X123604996Y-32567166D01*
X123578638Y-32570000D01*
X119351362Y-32570000D01*
X119284323Y-32550315D01*
X119263681Y-32533681D01*
X118810000Y-32080000D01*
X114800000Y-32080000D01*
X114799999Y-32080000D01*
X114376319Y-32503681D01*
X114314996Y-32537166D01*
X114288638Y-32540000D01*
X64481362Y-32540000D01*
X64414323Y-32520315D01*
X64393681Y-32503681D01*
X64096319Y-32206319D01*
X64062834Y-32144996D01*
X64060000Y-32118638D01*
X64060000Y-31571362D01*
X64079685Y-31504323D01*
X64096319Y-31483681D01*
X64213681Y-31366319D01*
X64275004Y-31332834D01*
X64301362Y-31330000D01*
X113970000Y-31330000D01*
X114353681Y-30946319D01*
X114415004Y-30912834D01*
X114441362Y-30910000D01*
X119258638Y-30910000D01*
X119325677Y-30929685D01*
G37*
%TD.AperFunction*%
%TD*%
%TA.AperFunction,Conductor*%
%TO.N,Net-(J1-Pin_6)*%
G36*
X120195677Y-101339685D02*
G01*
X120216319Y-101356319D01*
X120573681Y-101713681D01*
X120607166Y-101775004D01*
X120610000Y-101801362D01*
X120610000Y-150540000D01*
X121103681Y-151033681D01*
X121137166Y-151095004D01*
X121140000Y-151121362D01*
X121140000Y-154920000D01*
X124583681Y-158363681D01*
X124617166Y-158425004D01*
X124620000Y-158451362D01*
X124620000Y-169040000D01*
X127157815Y-170842927D01*
X127201066Y-170897799D01*
X127210000Y-170944013D01*
X127210000Y-180106000D01*
X127190315Y-180173039D01*
X127137511Y-180218794D01*
X127086000Y-180230000D01*
X126434000Y-180230000D01*
X126366961Y-180210315D01*
X126321206Y-180157511D01*
X126310000Y-180106000D01*
X126310000Y-171520001D01*
X126310000Y-171520000D01*
X123163319Y-169336990D01*
X123119457Y-169282603D01*
X123110000Y-169235107D01*
X123110000Y-158310000D01*
X120396319Y-155596319D01*
X120362834Y-155534996D01*
X120360000Y-155508638D01*
X120360000Y-151370000D01*
X119366319Y-150376319D01*
X119332834Y-150314996D01*
X119330000Y-150288638D01*
X119330000Y-101621362D01*
X119349685Y-101554323D01*
X119366319Y-101533681D01*
X119543681Y-101356319D01*
X119605004Y-101322834D01*
X119631362Y-101320000D01*
X120128638Y-101320000D01*
X120195677Y-101339685D01*
G37*
%TD.AperFunction*%
%TD*%
%TA.AperFunction,Conductor*%
%TO.N,Net-(J1-Pin_7)*%
G36*
X90175677Y-93859685D02*
G01*
X90196319Y-93876319D01*
X92430000Y-96110000D01*
X94590000Y-96110000D01*
X96783681Y-93916319D01*
X96845004Y-93882834D01*
X96871362Y-93880000D01*
X99458638Y-93880000D01*
X99525677Y-93899685D01*
X99546319Y-93916319D01*
X101770000Y-96140000D01*
X103930000Y-96140000D01*
X106153681Y-93916319D01*
X106215004Y-93882834D01*
X106241362Y-93880000D01*
X108668638Y-93880000D01*
X108735677Y-93899685D01*
X108756319Y-93916319D01*
X110940000Y-96100000D01*
X113210000Y-96100000D01*
X115413681Y-93896319D01*
X115475004Y-93862834D01*
X115501362Y-93860000D01*
X118088638Y-93860000D01*
X118155677Y-93879685D01*
X118176319Y-93896319D01*
X120740000Y-96460000D01*
X122578638Y-96460000D01*
X122645677Y-96479685D01*
X122666319Y-96496319D01*
X125793681Y-99623681D01*
X125827166Y-99685004D01*
X125830000Y-99711362D01*
X125830000Y-108238638D01*
X125810315Y-108305677D01*
X125793681Y-108326319D01*
X124040000Y-110079999D01*
X124040000Y-111800000D01*
X125853681Y-113613681D01*
X125887166Y-113675004D01*
X125890000Y-113701362D01*
X125890000Y-122228638D01*
X125870315Y-122295677D01*
X125853681Y-122316319D01*
X124060000Y-124109999D01*
X124060000Y-125790000D01*
X125883681Y-127613681D01*
X125917166Y-127675004D01*
X125920000Y-127701362D01*
X125920000Y-136188638D01*
X125900315Y-136255677D01*
X125883681Y-136276319D01*
X124120000Y-138039999D01*
X124120000Y-139720000D01*
X125893681Y-141493681D01*
X125927166Y-141555004D01*
X125930000Y-141581362D01*
X125930000Y-150198638D01*
X125910315Y-150265677D01*
X125893681Y-150286319D01*
X124150000Y-152029999D01*
X124150000Y-155040000D01*
X127153681Y-158043681D01*
X127187166Y-158105004D01*
X127190000Y-158131362D01*
X127190000Y-168370000D01*
X128858901Y-169582864D01*
X128901557Y-169638197D01*
X128910000Y-169683170D01*
X128910000Y-179896000D01*
X128890315Y-179963039D01*
X128837511Y-180008794D01*
X128786000Y-180020000D01*
X128134000Y-180020000D01*
X128066961Y-180000315D01*
X128021206Y-179947511D01*
X128010000Y-179896000D01*
X128010000Y-170110000D01*
X125674426Y-168526891D01*
X125629978Y-168472982D01*
X125620000Y-168424248D01*
X125620000Y-157940000D01*
X123126319Y-155446319D01*
X123092834Y-155384996D01*
X123090000Y-155358638D01*
X123090000Y-152201362D01*
X123109685Y-152134323D01*
X123126319Y-152113681D01*
X123210001Y-152029999D01*
X125300000Y-149940000D01*
X125300000Y-141820000D01*
X123516319Y-140036319D01*
X123482834Y-139974996D01*
X123480000Y-139948638D01*
X123480000Y-137781362D01*
X123499685Y-137714323D01*
X123516319Y-137693681D01*
X125300000Y-135910000D01*
X125300000Y-127870000D01*
X123496319Y-126066319D01*
X123462834Y-126004996D01*
X123460000Y-125978638D01*
X123460000Y-123821362D01*
X123479685Y-123754323D01*
X123496319Y-123733681D01*
X125230000Y-122000000D01*
X125230000Y-113870000D01*
X123476319Y-112116319D01*
X123442834Y-112054996D01*
X123440000Y-112028638D01*
X123440000Y-109841362D01*
X123459685Y-109774323D01*
X123476319Y-109753681D01*
X125230000Y-108000000D01*
X125230000Y-99930000D01*
X122530000Y-97230000D01*
X120511362Y-97230000D01*
X120444323Y-97210315D01*
X120423681Y-97193681D01*
X117790000Y-94560000D01*
X115890000Y-94560000D01*
X115889999Y-94560000D01*
X113646319Y-96803681D01*
X113584996Y-96837166D01*
X113558638Y-96840000D01*
X110841362Y-96840000D01*
X110774323Y-96820315D01*
X110753681Y-96803681D01*
X108530000Y-94580000D01*
X106540000Y-94580000D01*
X106539999Y-94580000D01*
X104326319Y-96793681D01*
X104264996Y-96827166D01*
X104238638Y-96830000D01*
X101581362Y-96830000D01*
X101514323Y-96810315D01*
X101493681Y-96793681D01*
X99280000Y-94580000D01*
X97200000Y-94580000D01*
X97199999Y-94580000D01*
X94986319Y-96793681D01*
X94924996Y-96827166D01*
X94898638Y-96830000D01*
X92091362Y-96830000D01*
X92024323Y-96810315D01*
X92003681Y-96793681D01*
X89870000Y-94660000D01*
X84860000Y-94660000D01*
X84859999Y-94660000D01*
X82706319Y-96813681D01*
X82644996Y-96847166D01*
X82618638Y-96850000D01*
X79871362Y-96850000D01*
X79804323Y-96830315D01*
X79783681Y-96813681D01*
X77580000Y-94610000D01*
X75640000Y-94610000D01*
X75639999Y-94610000D01*
X70930000Y-99319999D01*
X70930000Y-148256000D01*
X70910315Y-148323039D01*
X70857511Y-148368794D01*
X70806000Y-148380000D01*
X70241362Y-148380000D01*
X70174323Y-148360315D01*
X70153681Y-148343681D01*
X69876319Y-148066319D01*
X69842834Y-148004996D01*
X69840000Y-147978638D01*
X69840000Y-99311362D01*
X69859685Y-99244323D01*
X69876319Y-99223681D01*
X75203681Y-93896319D01*
X75265004Y-93862834D01*
X75291362Y-93860000D01*
X77798638Y-93860000D01*
X77865677Y-93879685D01*
X77886319Y-93896319D01*
X80070000Y-96080000D01*
X82280000Y-96080000D01*
X84483681Y-93876319D01*
X84545004Y-93842834D01*
X84571362Y-93840000D01*
X90108638Y-93840000D01*
X90175677Y-93859685D01*
G37*
%TD.AperFunction*%
%TD*%
%TA.AperFunction,Conductor*%
%TO.N,Net-(J1-Pin_2)*%
G36*
X92643039Y-101499685D02*
G01*
X92688794Y-101552489D01*
X92700000Y-101604000D01*
X92700000Y-107790000D01*
X92700000Y-150860000D01*
X97020000Y-155180000D01*
X99710000Y-155180000D01*
X101083681Y-153806319D01*
X101145004Y-153772834D01*
X101171362Y-153770000D01*
X103838638Y-153770000D01*
X103905677Y-153789685D01*
X103926319Y-153806319D01*
X106340000Y-156220000D01*
X111018638Y-156220000D01*
X111085677Y-156239685D01*
X111106319Y-156256319D01*
X114663681Y-159813681D01*
X114697166Y-159875004D01*
X114700000Y-159901362D01*
X114700000Y-171800001D01*
X120359245Y-175942845D01*
X120401712Y-175998327D01*
X120410000Y-176042900D01*
X120410000Y-180186000D01*
X120390315Y-180253039D01*
X120337511Y-180298794D01*
X120286000Y-180310000D01*
X119634000Y-180310000D01*
X119566961Y-180290315D01*
X119521206Y-180237511D01*
X119510000Y-180186000D01*
X119510000Y-176499999D01*
X113213085Y-172110037D01*
X113169348Y-172055550D01*
X113160000Y-172008317D01*
X113160000Y-159740000D01*
X110270000Y-156850000D01*
X106211362Y-156850000D01*
X106144323Y-156830315D01*
X106123681Y-156813681D01*
X103820000Y-154510000D01*
X101450000Y-154510000D01*
X101449999Y-154510000D01*
X100046319Y-155913681D01*
X99984996Y-155947166D01*
X99958638Y-155950000D01*
X96701362Y-155950000D01*
X96634323Y-155930315D01*
X96613681Y-155913681D01*
X91576319Y-150876319D01*
X91542834Y-150814996D01*
X91540000Y-150788638D01*
X91540000Y-101604000D01*
X91559685Y-101536961D01*
X91612489Y-101491206D01*
X91664000Y-101480000D01*
X92576000Y-101480000D01*
X92643039Y-101499685D01*
G37*
%TD.AperFunction*%
%TD*%
%TA.AperFunction,Conductor*%
%TO.N,Net-(J1-Pin_11)*%
G36*
X119525677Y-72919685D02*
G01*
X119546319Y-72936319D01*
X120050000Y-73440000D01*
X123190000Y-73440000D01*
X123683681Y-72946319D01*
X123745004Y-72912834D01*
X123771362Y-72910000D01*
X128748638Y-72910000D01*
X128815677Y-72929685D01*
X128836319Y-72946319D01*
X129290000Y-73400000D01*
X132480000Y-73400000D01*
X132943681Y-72936319D01*
X133005004Y-72902834D01*
X133031362Y-72900000D01*
X138108638Y-72900000D01*
X138175677Y-72919685D01*
X138196319Y-72936319D01*
X138670000Y-73410000D01*
X141800000Y-73410000D01*
X141843681Y-73366319D01*
X141905004Y-73332834D01*
X141931362Y-73330000D01*
X147888638Y-73330000D01*
X147955677Y-73349685D01*
X147976319Y-73366319D01*
X148093681Y-73483681D01*
X148127166Y-73545004D01*
X148130000Y-73571362D01*
X148130000Y-74168638D01*
X148110315Y-74235677D01*
X148093681Y-74256319D01*
X147946319Y-74403681D01*
X147884996Y-74437166D01*
X147858638Y-74440000D01*
X138740000Y-74440000D01*
X138740000Y-78550000D01*
X138950000Y-78760000D01*
X138968319Y-78741681D01*
X139029642Y-78708196D01*
X139099334Y-78713180D01*
X139155267Y-78755052D01*
X139179684Y-78820516D01*
X139180000Y-78829362D01*
X139180000Y-82958638D01*
X139160315Y-83025677D01*
X139143681Y-83046319D01*
X136750000Y-85439999D01*
X136750000Y-94460000D01*
X138113681Y-95823681D01*
X138147166Y-95885004D01*
X138150000Y-95911362D01*
X138150000Y-97968638D01*
X138130315Y-98035677D01*
X138113681Y-98056319D01*
X136300000Y-99869999D01*
X136300000Y-107890000D01*
X138143681Y-109733681D01*
X138177166Y-109795004D01*
X138180000Y-109821362D01*
X138180000Y-111958638D01*
X138160315Y-112025677D01*
X138143681Y-112046319D01*
X136360000Y-113829999D01*
X136360000Y-121960000D01*
X138193681Y-123793681D01*
X138227166Y-123855004D01*
X138230000Y-123881362D01*
X138230000Y-125998638D01*
X138210315Y-126065677D01*
X138193681Y-126086319D01*
X136440000Y-127839999D01*
X136440000Y-136000000D01*
X138173681Y-137733681D01*
X138207166Y-137795004D01*
X138210000Y-137821362D01*
X138210000Y-139988638D01*
X138190315Y-140055677D01*
X138173681Y-140076319D01*
X136450000Y-141799999D01*
X136450000Y-149930000D01*
X138253681Y-151733681D01*
X138287166Y-151795004D01*
X138290000Y-151821362D01*
X138290000Y-157480000D01*
X138683681Y-157873681D01*
X138717166Y-157935004D01*
X138720000Y-157961362D01*
X138720000Y-169465491D01*
X138700315Y-169532530D01*
X138667177Y-169567028D01*
X135710001Y-171639998D01*
X135710000Y-171640001D01*
X135710000Y-180066000D01*
X135690315Y-180133039D01*
X135637511Y-180178794D01*
X135586000Y-180190000D01*
X134934000Y-180190000D01*
X134866961Y-180170315D01*
X134821206Y-180117511D01*
X134810000Y-180066000D01*
X134810000Y-171192680D01*
X134829685Y-171125641D01*
X134860472Y-171092832D01*
X137200000Y-169370000D01*
X137200000Y-155311362D01*
X137219685Y-155244323D01*
X137236319Y-155223681D01*
X137650000Y-154810000D01*
X137650000Y-151910000D01*
X135866319Y-150126319D01*
X135832834Y-150064996D01*
X135830000Y-150038638D01*
X135830000Y-141551362D01*
X135849685Y-141484323D01*
X135866319Y-141463681D01*
X137620000Y-139710000D01*
X137620000Y-138010000D01*
X135866319Y-136256319D01*
X135832834Y-136194996D01*
X135830000Y-136168638D01*
X135830000Y-127541362D01*
X135849685Y-127474323D01*
X135866319Y-127453681D01*
X137600000Y-125720000D01*
X137600000Y-124000000D01*
X135836319Y-122236319D01*
X135802834Y-122174996D01*
X135800000Y-122148638D01*
X135800000Y-113591362D01*
X135819685Y-113524323D01*
X135836319Y-113503681D01*
X137620000Y-111720000D01*
X137620000Y-109950000D01*
X135836319Y-108166319D01*
X135802834Y-108104996D01*
X135800000Y-108078638D01*
X135800000Y-99541362D01*
X135819685Y-99474323D01*
X135836319Y-99453681D01*
X137520000Y-97770000D01*
X137520000Y-95980000D01*
X135796319Y-94256319D01*
X135762834Y-94194996D01*
X135760000Y-94168638D01*
X135760000Y-85641362D01*
X135779685Y-85574323D01*
X135796319Y-85553681D01*
X135910001Y-85439999D01*
X137980000Y-83370000D01*
X137980000Y-74390000D01*
X137640000Y-74050000D01*
X133329999Y-74050000D01*
X133006319Y-74373681D01*
X132944996Y-74407166D01*
X132918638Y-74410000D01*
X129239999Y-74410000D01*
X129056319Y-74593681D01*
X128994996Y-74627166D01*
X128968638Y-74630000D01*
X128891362Y-74630000D01*
X128824323Y-74610315D01*
X128803681Y-74593681D01*
X128260000Y-74050000D01*
X124090000Y-74050000D01*
X124089999Y-74050000D01*
X123656319Y-74483681D01*
X123594996Y-74517166D01*
X123568638Y-74520000D01*
X119481362Y-74520000D01*
X119414323Y-74500315D01*
X119393681Y-74483681D01*
X118960000Y-74050000D01*
X114740000Y-74050000D01*
X114739999Y-74050000D01*
X114316319Y-74473681D01*
X114254996Y-74507166D01*
X114228638Y-74510000D01*
X63951362Y-74510000D01*
X63884323Y-74490315D01*
X63863681Y-74473681D01*
X63766319Y-74376319D01*
X63732834Y-74314996D01*
X63730000Y-74288638D01*
X63730000Y-73521362D01*
X63749685Y-73454323D01*
X63766319Y-73433681D01*
X63833681Y-73366319D01*
X63895004Y-73332834D01*
X63921362Y-73330000D01*
X113800000Y-73330000D01*
X114193681Y-72936319D01*
X114255004Y-72902834D01*
X114281362Y-72900000D01*
X119458638Y-72900000D01*
X119525677Y-72919685D01*
G37*
%TD.AperFunction*%
%TD*%
%TA.AperFunction,Conductor*%
%TO.N,Net-(J1-Pin_3)*%
G36*
X101535677Y-101709685D02*
G01*
X101556319Y-101726319D01*
X101803681Y-101973681D01*
X101837166Y-102035004D01*
X101840000Y-102061362D01*
X101840000Y-150170000D01*
X106600000Y-154930000D01*
X112538638Y-154930000D01*
X112605677Y-154949685D01*
X112626319Y-154966319D01*
X117073681Y-159413681D01*
X117107166Y-159475004D01*
X117110000Y-159501362D01*
X117110000Y-171100000D01*
X121324835Y-174159730D01*
X122057817Y-174691833D01*
X122100504Y-174747146D01*
X122108971Y-174792155D01*
X122109976Y-179875975D01*
X122090305Y-179943019D01*
X122037510Y-179988784D01*
X121985976Y-180000000D01*
X121334000Y-180000000D01*
X121266961Y-179980315D01*
X121221206Y-179927511D01*
X121210000Y-179876000D01*
X121210000Y-175210001D01*
X121210000Y-175210000D01*
X121209998Y-175209999D01*
X121209998Y-175209998D01*
X115643960Y-171400090D01*
X115599757Y-171345979D01*
X115590000Y-171297765D01*
X115590000Y-159350000D01*
X111790000Y-155550000D01*
X106581362Y-155550000D01*
X106514323Y-155530315D01*
X106493681Y-155513681D01*
X100786319Y-149806319D01*
X100752834Y-149744996D01*
X100750000Y-149718638D01*
X100750000Y-101941362D01*
X100769685Y-101874323D01*
X100786319Y-101853681D01*
X100913681Y-101726319D01*
X100975004Y-101692834D01*
X101001362Y-101690000D01*
X101468638Y-101690000D01*
X101535677Y-101709685D01*
G37*
%TD.AperFunction*%
%TD*%
%TA.AperFunction,Conductor*%
%TO.N,Net-(J1-Pin_5)*%
G36*
X114485677Y-97599685D02*
G01*
X114506319Y-97616319D01*
X117173681Y-100283681D01*
X117207166Y-100345004D01*
X117210000Y-100371362D01*
X117210000Y-107518638D01*
X117190315Y-107585677D01*
X117173681Y-107606319D01*
X114740000Y-110039999D01*
X114740000Y-111830000D01*
X117173681Y-114263681D01*
X117207166Y-114325004D01*
X117210000Y-114351362D01*
X117210000Y-121508638D01*
X117190315Y-121575677D01*
X117173681Y-121596319D01*
X114740000Y-124029999D01*
X114740000Y-125810000D01*
X117213681Y-128283681D01*
X117247166Y-128345004D01*
X117250000Y-128371362D01*
X117250000Y-135478638D01*
X117230315Y-135545677D01*
X117213681Y-135566319D01*
X114790000Y-137989999D01*
X114790000Y-139800000D01*
X117243681Y-142253681D01*
X117277166Y-142315004D01*
X117280000Y-142341362D01*
X117280000Y-149370000D01*
X119653681Y-151743681D01*
X119687166Y-151805004D01*
X119690000Y-151831362D01*
X119690000Y-156320000D01*
X122073681Y-158703681D01*
X122107166Y-158765004D01*
X122110000Y-158791362D01*
X122110000Y-169830000D01*
X125455520Y-172054077D01*
X125500450Y-172107584D01*
X125510871Y-172157354D01*
X125510014Y-179946014D01*
X125490322Y-180013051D01*
X125437513Y-180058800D01*
X125386014Y-180070000D01*
X124734000Y-180070000D01*
X124666961Y-180050315D01*
X124621206Y-179997511D01*
X124610000Y-179946000D01*
X124610000Y-172650001D01*
X124610000Y-172650000D01*
X120615749Y-170016753D01*
X120570613Y-169963419D01*
X120560000Y-169913226D01*
X120560000Y-158620000D01*
X119056319Y-157116319D01*
X119022834Y-157054996D01*
X119020000Y-157028638D01*
X119020000Y-151950000D01*
X116526319Y-149456319D01*
X116492834Y-149394996D01*
X116490000Y-149368638D01*
X116490000Y-142300000D01*
X114176319Y-139986319D01*
X114142834Y-139924996D01*
X114140000Y-139898638D01*
X114140000Y-137831362D01*
X114159685Y-137764323D01*
X114176319Y-137743681D01*
X116510000Y-135410000D01*
X116510000Y-128430000D01*
X114156319Y-126076319D01*
X114122834Y-126014996D01*
X114120000Y-125988638D01*
X114120000Y-123851362D01*
X114139685Y-123784323D01*
X114156319Y-123763681D01*
X116460000Y-121460000D01*
X116460000Y-114470000D01*
X114166319Y-112176319D01*
X114132834Y-112114996D01*
X114130000Y-112088638D01*
X114130000Y-109841362D01*
X114149685Y-109774323D01*
X114166319Y-109753681D01*
X116430000Y-107490000D01*
X116430000Y-100390000D01*
X114380000Y-98340000D01*
X109919999Y-98340000D01*
X108286319Y-99973681D01*
X108224996Y-100007166D01*
X108198638Y-100010000D01*
X106851362Y-100010000D01*
X106784323Y-99990315D01*
X106763681Y-99973681D01*
X105140000Y-98350000D01*
X100670000Y-98350000D01*
X100669999Y-98350000D01*
X99026319Y-99993681D01*
X98964996Y-100027166D01*
X98938638Y-100030000D01*
X97501362Y-100030000D01*
X97434323Y-100010315D01*
X97413681Y-99993681D01*
X95760000Y-98340000D01*
X91230000Y-98340000D01*
X91229999Y-98340000D01*
X89576319Y-99993681D01*
X89514996Y-100027166D01*
X89488638Y-100030000D01*
X85191362Y-100030000D01*
X85124323Y-100010315D01*
X85103681Y-99993681D01*
X83440000Y-98330000D01*
X81820000Y-98330000D01*
X81819999Y-98330000D01*
X80250000Y-99899999D01*
X80250000Y-148206000D01*
X80230315Y-148273039D01*
X80177511Y-148318794D01*
X80126000Y-148330000D01*
X79291362Y-148330000D01*
X79224323Y-148310315D01*
X79203681Y-148293681D01*
X79176319Y-148266319D01*
X79142834Y-148204996D01*
X79140000Y-148178638D01*
X79140000Y-100061362D01*
X79159685Y-99994323D01*
X79176319Y-99973681D01*
X81483681Y-97666319D01*
X81545004Y-97632834D01*
X81571362Y-97630000D01*
X83488638Y-97630000D01*
X83555677Y-97649685D01*
X83576319Y-97666319D01*
X85240000Y-99330000D01*
X89470000Y-99330000D01*
X91173681Y-97626319D01*
X91235004Y-97592834D01*
X91261362Y-97590000D01*
X95808638Y-97590000D01*
X95875677Y-97609685D01*
X95896319Y-97626319D01*
X97600000Y-99330000D01*
X98740000Y-99330000D01*
X100443681Y-97626319D01*
X100505004Y-97592834D01*
X100531362Y-97590000D01*
X105108638Y-97590000D01*
X105175677Y-97609685D01*
X105196319Y-97626319D01*
X106870000Y-99300000D01*
X108080000Y-99300000D01*
X109763681Y-97616319D01*
X109825004Y-97582834D01*
X109851362Y-97580000D01*
X114418638Y-97580000D01*
X114485677Y-97599685D01*
G37*
%TD.AperFunction*%
%TD*%
%TA.AperFunction,Conductor*%
%TO.N,Net-(J1-Pin_4)*%
G36*
X110625677Y-101369685D02*
G01*
X110646319Y-101386319D01*
X111063681Y-101803681D01*
X111097166Y-101865004D01*
X111100000Y-101891362D01*
X111100000Y-150630000D01*
X111110000Y-150640000D01*
X119440536Y-158990000D01*
X119633783Y-159183698D01*
X119667197Y-159245060D01*
X119670000Y-159271277D01*
X119670000Y-170450000D01*
X123757959Y-173362918D01*
X123801132Y-173417850D01*
X123810000Y-173463901D01*
X123810000Y-180056000D01*
X123790315Y-180123039D01*
X123737511Y-180168794D01*
X123686000Y-180180000D01*
X123034000Y-180180000D01*
X122966961Y-180160315D01*
X122921206Y-180107511D01*
X122910000Y-180056000D01*
X122910000Y-173960000D01*
X118143275Y-170650049D01*
X118099437Y-170595643D01*
X118090000Y-170548196D01*
X118090000Y-158990000D01*
X109996319Y-150896319D01*
X109962834Y-150834996D01*
X109960000Y-150808638D01*
X109960000Y-101551362D01*
X109979685Y-101484323D01*
X109996319Y-101463681D01*
X110073681Y-101386319D01*
X110135004Y-101352834D01*
X110161362Y-101350000D01*
X110558638Y-101350000D01*
X110625677Y-101369685D01*
G37*
%TD.AperFunction*%
%TD*%
%TA.AperFunction,Conductor*%
%TO.N,Net-(J1-Pin_9)*%
G36*
X129765203Y-147925649D02*
G01*
X129771681Y-147931681D01*
X130310000Y-148470000D01*
X130666000Y-148470000D01*
X130733039Y-148489685D01*
X130778794Y-148542489D01*
X130790000Y-148594000D01*
X130790000Y-156080000D01*
X132273681Y-157563681D01*
X132307166Y-157625004D01*
X132310000Y-157651362D01*
X132310000Y-180066000D01*
X132290315Y-180133039D01*
X132237511Y-180178794D01*
X132186000Y-180190000D01*
X131534000Y-180190000D01*
X131466961Y-180170315D01*
X131421206Y-180117511D01*
X131410000Y-180066000D01*
X131410000Y-167750000D01*
X130711546Y-167247113D01*
X130668643Y-167191967D01*
X130660000Y-167146483D01*
X130660000Y-157350000D01*
X129596319Y-156286319D01*
X129562834Y-156224996D01*
X129560000Y-156198638D01*
X129560000Y-148019362D01*
X129579685Y-147952323D01*
X129632489Y-147906568D01*
X129701647Y-147896624D01*
X129765203Y-147925649D01*
G37*
%TD.AperFunction*%
%TA.AperFunction,Conductor*%
G36*
X129765203Y-133805649D02*
G01*
X129771681Y-133811681D01*
X130260000Y-134300000D01*
X130616000Y-134300000D01*
X130683039Y-134319685D01*
X130728794Y-134372489D01*
X130740000Y-134424000D01*
X130740000Y-143238638D01*
X130720315Y-143305677D01*
X130703681Y-143326319D01*
X130036319Y-143993681D01*
X129974996Y-144027166D01*
X129948638Y-144030000D01*
X129684000Y-144030000D01*
X129616961Y-144010315D01*
X129571206Y-143957511D01*
X129560000Y-143906000D01*
X129560000Y-133899362D01*
X129579685Y-133832323D01*
X129632489Y-133786568D01*
X129701647Y-133776624D01*
X129765203Y-133805649D01*
G37*
%TD.AperFunction*%
%TA.AperFunction,Conductor*%
G36*
X129765203Y-119855649D02*
G01*
X129771681Y-119861681D01*
X130460000Y-120550000D01*
X130616000Y-120550000D01*
X130683039Y-120569685D01*
X130728794Y-120622489D01*
X130740000Y-120674000D01*
X130740000Y-129258638D01*
X130720315Y-129325677D01*
X130703681Y-129346319D01*
X130026319Y-130023681D01*
X129964996Y-130057166D01*
X129938638Y-130060000D01*
X129684000Y-130060000D01*
X129616961Y-130040315D01*
X129571206Y-129987511D01*
X129560000Y-129936000D01*
X129560000Y-119949362D01*
X129579685Y-119882323D01*
X129632489Y-119836568D01*
X129701647Y-119826624D01*
X129765203Y-119855649D01*
G37*
%TD.AperFunction*%
%TA.AperFunction,Conductor*%
G36*
X130643039Y-106209685D02*
G01*
X130688794Y-106262489D01*
X130700000Y-106314000D01*
X130700000Y-115304346D01*
X130680315Y-115371385D01*
X130645699Y-115406903D01*
X129753699Y-116013117D01*
X129687188Y-116034519D01*
X129619665Y-116016565D01*
X129572567Y-115964954D01*
X129560000Y-115910560D01*
X129560000Y-106314000D01*
X129579685Y-106246961D01*
X129632489Y-106201206D01*
X129684000Y-106190000D01*
X130576000Y-106190000D01*
X130643039Y-106209685D01*
G37*
%TD.AperFunction*%
%TD*%
%TA.AperFunction,Conductor*%
%TO.N,Net-(J1-Pin_8)*%
G36*
X78445677Y-92369685D02*
G01*
X78466319Y-92386319D01*
X80700000Y-94620000D01*
X81620000Y-94620000D01*
X83813681Y-92426319D01*
X83875004Y-92392834D01*
X83901362Y-92390000D01*
X90788638Y-92390000D01*
X90855677Y-92409685D01*
X90876319Y-92426319D01*
X93050000Y-94600000D01*
X94000000Y-94600000D01*
X96193681Y-92406319D01*
X96255004Y-92372834D01*
X96281362Y-92370000D01*
X100078638Y-92370000D01*
X100145677Y-92389685D01*
X100166319Y-92406319D01*
X102360000Y-94600000D01*
X103330000Y-94600000D01*
X105503681Y-92426319D01*
X105565004Y-92392834D01*
X105591362Y-92390000D01*
X109418638Y-92390000D01*
X109485677Y-92409685D01*
X109506319Y-92426319D01*
X111690000Y-94610000D01*
X112610000Y-94610000D01*
X114813681Y-92406319D01*
X114875004Y-92372834D01*
X114901362Y-92370000D01*
X118708638Y-92370000D01*
X118775677Y-92389685D01*
X118796319Y-92406319D01*
X121380000Y-94990000D01*
X124270000Y-94990000D01*
X124913681Y-94346319D01*
X124975004Y-94312834D01*
X125001362Y-94310000D01*
X127208638Y-94310000D01*
X127275677Y-94329685D01*
X127296319Y-94346319D01*
X128763681Y-95813681D01*
X128797166Y-95875004D01*
X128800000Y-95901362D01*
X128800000Y-97968638D01*
X128780315Y-98035677D01*
X128763681Y-98056319D01*
X127050000Y-99769999D01*
X127050000Y-107930000D01*
X128773681Y-109653681D01*
X128807166Y-109715004D01*
X128810000Y-109741362D01*
X128810000Y-112048638D01*
X128790315Y-112115677D01*
X128773681Y-112136319D01*
X127050000Y-113859999D01*
X127050000Y-121950000D01*
X128833681Y-123733681D01*
X128867166Y-123795004D01*
X128870000Y-123821362D01*
X128870000Y-126068638D01*
X128850315Y-126135677D01*
X128833681Y-126156319D01*
X127140000Y-127849999D01*
X127140000Y-135980000D01*
X128893681Y-137733681D01*
X128927166Y-137795004D01*
X128930000Y-137821362D01*
X128930000Y-139948638D01*
X128910315Y-140015677D01*
X128893681Y-140036319D01*
X127110000Y-141819999D01*
X127110000Y-149870000D01*
X128943681Y-151703681D01*
X128977166Y-151765004D01*
X128980000Y-151791362D01*
X128980000Y-156998638D01*
X128970000Y-157032693D01*
X128970000Y-157060000D01*
X129603681Y-157693681D01*
X129637166Y-157755004D01*
X129640000Y-157781362D01*
X129640000Y-167640000D01*
X130561211Y-168342780D01*
X130602571Y-168399091D01*
X130610000Y-168441366D01*
X130610000Y-179986000D01*
X130590315Y-180053039D01*
X130537511Y-180098794D01*
X130486000Y-180110000D01*
X129834000Y-180110000D01*
X129766961Y-180090315D01*
X129721206Y-180037511D01*
X129710000Y-179986000D01*
X129710000Y-168970000D01*
X129709999Y-168969999D01*
X128180207Y-167837178D01*
X128138045Y-167781463D01*
X128130000Y-167737526D01*
X128130000Y-153871362D01*
X128149685Y-153804323D01*
X128166319Y-153783681D01*
X128360000Y-153590000D01*
X128360000Y-151990000D01*
X126556319Y-150186319D01*
X126522834Y-150124996D01*
X126520000Y-150098638D01*
X126520000Y-141541362D01*
X126539685Y-141474323D01*
X126556319Y-141453681D01*
X128370000Y-139640000D01*
X128370000Y-138050000D01*
X126536319Y-136216319D01*
X126502834Y-136154996D01*
X126500000Y-136128638D01*
X126500000Y-127501362D01*
X126519685Y-127434323D01*
X126536319Y-127413681D01*
X128330000Y-125620000D01*
X128330000Y-124020000D01*
X126536319Y-122226319D01*
X126502834Y-122164996D01*
X126500000Y-122138638D01*
X126500000Y-113551362D01*
X126519685Y-113484323D01*
X126536319Y-113463681D01*
X128260000Y-111740000D01*
X128260000Y-110060000D01*
X126436319Y-108236319D01*
X126402834Y-108174996D01*
X126400000Y-108148638D01*
X126400000Y-99671362D01*
X126419685Y-99604323D01*
X126436319Y-99583681D01*
X128190000Y-97830000D01*
X128190000Y-96040000D01*
X127020000Y-94870000D01*
X125319999Y-94870000D01*
X124486319Y-95703681D01*
X124424996Y-95737166D01*
X124398638Y-95740000D01*
X121181362Y-95740000D01*
X121114323Y-95720315D01*
X121093681Y-95703681D01*
X118470000Y-93080000D01*
X115120000Y-93080000D01*
X115119999Y-93080000D01*
X112916319Y-95283681D01*
X112854996Y-95317166D01*
X112828638Y-95320000D01*
X111381362Y-95320000D01*
X111314323Y-95300315D01*
X111293681Y-95283681D01*
X109110000Y-93100000D01*
X105880000Y-93100000D01*
X105879999Y-93100000D01*
X103706319Y-95273681D01*
X103644996Y-95307166D01*
X103618638Y-95310000D01*
X102101362Y-95310000D01*
X102034323Y-95290315D01*
X102013681Y-95273681D01*
X99840000Y-93100000D01*
X96580000Y-93100000D01*
X96579999Y-93100000D01*
X94396319Y-95283681D01*
X94334996Y-95317166D01*
X94308638Y-95320000D01*
X92741362Y-95320000D01*
X92674323Y-95300315D01*
X92653681Y-95283681D01*
X90480000Y-93110000D01*
X84250000Y-93110000D01*
X84249999Y-93110000D01*
X82106319Y-95253681D01*
X82044996Y-95287166D01*
X82018638Y-95290000D01*
X80451362Y-95290000D01*
X80384323Y-95270315D01*
X80363681Y-95253681D01*
X78220000Y-93110000D01*
X74960000Y-93110000D01*
X74959999Y-93110000D01*
X72736319Y-95333681D01*
X72674996Y-95367166D01*
X72648638Y-95370000D01*
X70111362Y-95370000D01*
X70044323Y-95350315D01*
X70023681Y-95333681D01*
X68560000Y-93870000D01*
X66110000Y-93870000D01*
X66109999Y-93870000D01*
X61680000Y-98299999D01*
X61680000Y-148170638D01*
X61660315Y-148237677D01*
X61607511Y-148283432D01*
X61538353Y-148293376D01*
X61474797Y-148264351D01*
X61468319Y-148258319D01*
X60586319Y-147376319D01*
X60552834Y-147314996D01*
X60550000Y-147288638D01*
X60550000Y-98281362D01*
X60569685Y-98214323D01*
X60586319Y-98193681D01*
X65583681Y-93196319D01*
X65645004Y-93162834D01*
X65671362Y-93160000D01*
X68848638Y-93160000D01*
X68915677Y-93179685D01*
X68936319Y-93196319D01*
X70370000Y-94630000D01*
X72390000Y-94630000D01*
X74633681Y-92386319D01*
X74695004Y-92352834D01*
X74721362Y-92350000D01*
X78378638Y-92350000D01*
X78445677Y-92369685D01*
G37*
%TD.AperFunction*%
%TD*%
%TA.AperFunction,Conductor*%
%TO.N,Net-(J1-Pin_13)*%
G36*
X147805677Y-101309685D02*
G01*
X147826319Y-101326319D01*
X148363681Y-101863681D01*
X148397166Y-101925004D01*
X148400000Y-101951362D01*
X148400000Y-151326000D01*
X148380315Y-151393039D01*
X148327511Y-151438794D01*
X148276000Y-151450000D01*
X146591362Y-151450000D01*
X146524323Y-151430315D01*
X146503681Y-151413681D01*
X145440000Y-150350000D01*
X144320000Y-150350000D01*
X144319999Y-150350000D01*
X142440000Y-152229999D01*
X142440000Y-154520000D01*
X143653681Y-155733681D01*
X143687166Y-155795004D01*
X143690000Y-155821362D01*
X143690000Y-170895369D01*
X143670315Y-170962408D01*
X143637020Y-170997016D01*
X139110000Y-174159999D01*
X139110000Y-179996000D01*
X139090315Y-180063039D01*
X139037511Y-180108794D01*
X138986000Y-180120000D01*
X138334000Y-180120000D01*
X138266961Y-180100315D01*
X138221206Y-180047511D01*
X138210000Y-179996000D01*
X138210000Y-173644508D01*
X138229685Y-173577469D01*
X138262820Y-173542972D01*
X142190000Y-170790000D01*
X142190000Y-155630000D01*
X141776319Y-155216319D01*
X141742834Y-155154996D01*
X141740000Y-155128638D01*
X141740000Y-152211362D01*
X141759685Y-152144323D01*
X141776319Y-152123681D01*
X144243681Y-149656319D01*
X144305004Y-149622834D01*
X144331362Y-149620000D01*
X145388638Y-149620000D01*
X145455677Y-149639685D01*
X145476319Y-149656319D01*
X146570000Y-150750000D01*
X147240000Y-150750000D01*
X147240000Y-101531362D01*
X147259685Y-101464323D01*
X147276319Y-101443681D01*
X147393681Y-101326319D01*
X147455004Y-101292834D01*
X147481362Y-101290000D01*
X147738638Y-101290000D01*
X147805677Y-101309685D01*
G37*
%TD.AperFunction*%
%TD*%
M02*
